<?xml version="1.0" encoding="utf-8" standalone="no"?>
<!DOCTYPE svg PUBLIC "-//W3C//DTD SVG 1.1//EN"
  "http://www.w3.org/Graphics/SVG/1.1/DTD/svg11.dtd">
<svg xmlns:xlink="http://www.w3.org/1999/xlink" width="597.348125pt" height="230.836931pt" viewBox="0 0 597.348125 230.836931" xmlns="http://www.w3.org/2000/svg" version="1.1">
 <metadata>
  <rdf:RDF xmlns:dc="http://purl.org/dc/elements/1.1/" xmlns:cc="http://creativecommons.org/ns#" xmlns:rdf="http://www.w3.org/1999/02/22-rdf-syntax-ns#">
   <cc:Work>
    <dc:type rdf:resource="http://purl.org/dc/dcmitype/StillImage"/>
    <dc:date>2026-06-10T07:48:02.628495</dc:date>
    <dc:format>image/svg+xml</dc:format>
    <dc:creator>
     <cc:Agent>
      <dc:title>Matplotlib v3.10.9, https://matplotlib.org/</dc:title>
     </cc:Agent>
    </dc:creator>
   </cc:Work>
  </rdf:RDF>
 </metadata>
 <defs>
  <style type="text/css">*{stroke-linejoin: round; stroke-linecap: butt}</style>
 </defs>
 <g id="figure_1">
  <g id="patch_1">
   <path d="M 0 230.836931 
L 597.348125 230.836931 
L 597.348125 0 
L 0 0 
z
" style="fill: #ffffff"/>
  </g>
  <g id="axes_1">
   <g id="patch_2">
    <path d="M 43.148125 177.248279 
L 305.408782 177.248279 
L 305.408782 61.58 
L 43.148125 61.58 
z
" style="fill: #ffffff"/>
   </g>
   <g id="matplotlib.axis_1">
    <g id="xtick_1">
     <g id="line2d_1">
      <defs>
       <path id="m694c575d75" d="M 0 0 
L 0 3.5 
" style="stroke: #000000; stroke-width: 0.8"/>
      </defs>
      <g>
       <use xlink:href="#m694c575d75" x="66.74421" y="177.248279" style="stroke: #000000; stroke-width: 0.8"/>
      </g>
     </g>
     <g id="text_1">
      <!-- &lt;=128 -->
      <g transform="translate(42.29869 205.676437) rotate(-35) scale(0.08 -0.08)">
       <defs>
        <path id="DejaVuSans-3c" d="M 4684 3150 
L 1459 2003 
L 4684 863 
L 4684 294 
L 678 1747 
L 678 2266 
L 4684 3719 
L 4684 3150 
z
" transform="scale(0.015625)"/>
        <path id="DejaVuSans-3d" d="M 678 2906 
L 4684 2906 
L 4684 2381 
L 678 2381 
L 678 2906 
z
M 678 1631 
L 4684 1631 
L 4684 1100 
L 678 1100 
L 678 1631 
z
" transform="scale(0.015625)"/>
        <path id="DejaVuSans-31" d="M 794 531 
L 1825 531 
L 1825 4091 
L 703 3866 
L 703 4441 
L 1819 4666 
L 2450 4666 
L 2450 531 
L 3481 531 
L 3481 0 
L 794 0 
L 794 531 
z
" transform="scale(0.015625)"/>
        <path id="DejaVuSans-32" d="M 1228 531 
L 3431 531 
L 3431 0 
L 469 0 
L 469 531 
Q 828 903 1448 1529 
Q 2069 2156 2228 2338 
Q 2531 2678 2651 2914 
Q 2772 3150 2772 3378 
Q 2772 3750 2511 3984 
Q 2250 4219 1831 4219 
Q 1534 4219 1204 4116 
Q 875 4013 500 3803 
L 500 4441 
Q 881 4594 1212 4672 
Q 1544 4750 1819 4750 
Q 2544 4750 2975 4387 
Q 3406 4025 3406 3419 
Q 3406 3131 3298 2873 
Q 3191 2616 2906 2266 
Q 2828 2175 2409 1742 
Q 1991 1309 1228 531 
z
" transform="scale(0.015625)"/>
        <path id="DejaVuSans-38" d="M 2034 2216 
Q 1584 2216 1326 1975 
Q 1069 1734 1069 1313 
Q 1069 891 1326 650 
Q 1584 409 2034 409 
Q 2484 409 2743 651 
Q 3003 894 3003 1313 
Q 3003 1734 2745 1975 
Q 2488 2216 2034 2216 
z
M 1403 2484 
Q 997 2584 770 2862 
Q 544 3141 544 3541 
Q 544 4100 942 4425 
Q 1341 4750 2034 4750 
Q 2731 4750 3128 4425 
Q 3525 4100 3525 3541 
Q 3525 3141 3298 2862 
Q 3072 2584 2669 2484 
Q 3125 2378 3379 2068 
Q 3634 1759 3634 1313 
Q 3634 634 3220 271 
Q 2806 -91 2034 -91 
Q 1263 -91 848 271 
Q 434 634 434 1313 
Q 434 1759 690 2068 
Q 947 2378 1403 2484 
z
M 1172 3481 
Q 1172 3119 1398 2916 
Q 1625 2713 2034 2713 
Q 2441 2713 2670 2916 
Q 2900 3119 2900 3481 
Q 2900 3844 2670 4047 
Q 2441 4250 2034 4250 
Q 1625 4250 1398 4047 
Q 1172 3844 1172 3481 
z
" transform="scale(0.015625)"/>
       </defs>
       <use xlink:href="#DejaVuSans-3c"/>
       <use xlink:href="#DejaVuSans-3d" transform="translate(83.789062 0)"/>
       <use xlink:href="#DejaVuSans-31" transform="translate(167.578125 0)"/>
       <use xlink:href="#DejaVuSans-32" transform="translate(231.201172 0)"/>
       <use xlink:href="#DejaVuSans-38" transform="translate(294.824219 0)"/>
      </g>
     </g>
    </g>
    <g id="xtick_2">
     <g id="line2d_2">
      <g>
       <use xlink:href="#m694c575d75" x="97.46828" y="177.248279" style="stroke: #000000; stroke-width: 0.8"/>
      </g>
     </g>
     <g id="text_2">
      <!-- &lt;=256 -->
      <g transform="translate(73.022759 205.676437) rotate(-35) scale(0.08 -0.08)">
       <defs>
        <path id="DejaVuSans-35" d="M 691 4666 
L 3169 4666 
L 3169 4134 
L 1269 4134 
L 1269 2991 
Q 1406 3038 1543 3061 
Q 1681 3084 1819 3084 
Q 2600 3084 3056 2656 
Q 3513 2228 3513 1497 
Q 3513 744 3044 326 
Q 2575 -91 1722 -91 
Q 1428 -91 1123 -41 
Q 819 9 494 109 
L 494 744 
Q 775 591 1075 516 
Q 1375 441 1709 441 
Q 2250 441 2565 725 
Q 2881 1009 2881 1497 
Q 2881 1984 2565 2268 
Q 2250 2553 1709 2553 
Q 1456 2553 1204 2497 
Q 953 2441 691 2322 
L 691 4666 
z
" transform="scale(0.015625)"/>
        <path id="DejaVuSans-36" d="M 2113 2584 
Q 1688 2584 1439 2293 
Q 1191 2003 1191 1497 
Q 1191 994 1439 701 
Q 1688 409 2113 409 
Q 2538 409 2786 701 
Q 3034 994 3034 1497 
Q 3034 2003 2786 2293 
Q 2538 2584 2113 2584 
z
M 3366 4563 
L 3366 3988 
Q 3128 4100 2886 4159 
Q 2644 4219 2406 4219 
Q 1781 4219 1451 3797 
Q 1122 3375 1075 2522 
Q 1259 2794 1537 2939 
Q 1816 3084 2150 3084 
Q 2853 3084 3261 2657 
Q 3669 2231 3669 1497 
Q 3669 778 3244 343 
Q 2819 -91 2113 -91 
Q 1303 -91 875 529 
Q 447 1150 447 2328 
Q 447 3434 972 4092 
Q 1497 4750 2381 4750 
Q 2619 4750 2861 4703 
Q 3103 4656 3366 4563 
z
" transform="scale(0.015625)"/>
       </defs>
       <use xlink:href="#DejaVuSans-3c"/>
       <use xlink:href="#DejaVuSans-3d" transform="translate(83.789062 0)"/>
       <use xlink:href="#DejaVuSans-32" transform="translate(167.578125 0)"/>
       <use xlink:href="#DejaVuSans-35" transform="translate(231.201172 0)"/>
       <use xlink:href="#DejaVuSans-36" transform="translate(294.824219 0)"/>
      </g>
     </g>
    </g>
    <g id="xtick_3">
     <g id="line2d_3">
      <g>
       <use xlink:href="#m694c575d75" x="128.192349" y="177.248279" style="stroke: #000000; stroke-width: 0.8"/>
      </g>
     </g>
     <g id="text_3">
      <!-- &lt;=512 -->
      <g transform="translate(103.746829 205.676437) rotate(-35) scale(0.08 -0.08)">
       <use xlink:href="#DejaVuSans-3c"/>
       <use xlink:href="#DejaVuSans-3d" transform="translate(83.789062 0)"/>
       <use xlink:href="#DejaVuSans-35" transform="translate(167.578125 0)"/>
       <use xlink:href="#DejaVuSans-31" transform="translate(231.201172 0)"/>
       <use xlink:href="#DejaVuSans-32" transform="translate(294.824219 0)"/>
      </g>
     </g>
    </g>
    <g id="xtick_4">
     <g id="line2d_4">
      <g>
       <use xlink:href="#m694c575d75" x="158.916419" y="177.248279" style="stroke: #000000; stroke-width: 0.8"/>
      </g>
     </g>
     <g id="text_4">
      <!-- &lt;=1024 -->
      <g transform="translate(130.301414 208.595941) rotate(-35) scale(0.08 -0.08)">
       <defs>
        <path id="DejaVuSans-30" d="M 2034 4250 
Q 1547 4250 1301 3770 
Q 1056 3291 1056 2328 
Q 1056 1369 1301 889 
Q 1547 409 2034 409 
Q 2525 409 2770 889 
Q 3016 1369 3016 2328 
Q 3016 3291 2770 3770 
Q 2525 4250 2034 4250 
z
M 2034 4750 
Q 2819 4750 3233 4129 
Q 3647 3509 3647 2328 
Q 3647 1150 3233 529 
Q 2819 -91 2034 -91 
Q 1250 -91 836 529 
Q 422 1150 422 2328 
Q 422 3509 836 4129 
Q 1250 4750 2034 4750 
z
" transform="scale(0.015625)"/>
        <path id="DejaVuSans-34" d="M 2419 4116 
L 825 1625 
L 2419 1625 
L 2419 4116 
z
M 2253 4666 
L 3047 4666 
L 3047 1625 
L 3713 1625 
L 3713 1100 
L 3047 1100 
L 3047 0 
L 2419 0 
L 2419 1100 
L 313 1100 
L 313 1709 
L 2253 4666 
z
" transform="scale(0.015625)"/>
       </defs>
       <use xlink:href="#DejaVuSans-3c"/>
       <use xlink:href="#DejaVuSans-3d" transform="translate(83.789062 0)"/>
       <use xlink:href="#DejaVuSans-31" transform="translate(167.578125 0)"/>
       <use xlink:href="#DejaVuSans-30" transform="translate(231.201172 0)"/>
       <use xlink:href="#DejaVuSans-32" transform="translate(294.824219 0)"/>
       <use xlink:href="#DejaVuSans-34" transform="translate(358.447266 0)"/>
      </g>
     </g>
    </g>
    <g id="xtick_5">
     <g id="line2d_5">
      <g>
       <use xlink:href="#m694c575d75" x="189.640488" y="177.248279" style="stroke: #000000; stroke-width: 0.8"/>
      </g>
     </g>
     <g id="text_5">
      <!-- &lt;=2048 -->
      <g transform="translate(161.025484 208.595941) rotate(-35) scale(0.08 -0.08)">
       <use xlink:href="#DejaVuSans-3c"/>
       <use xlink:href="#DejaVuSans-3d" transform="translate(83.789062 0)"/>
       <use xlink:href="#DejaVuSans-32" transform="translate(167.578125 0)"/>
       <use xlink:href="#DejaVuSans-30" transform="translate(231.201172 0)"/>
       <use xlink:href="#DejaVuSans-34" transform="translate(294.824219 0)"/>
       <use xlink:href="#DejaVuSans-38" transform="translate(358.447266 0)"/>
      </g>
     </g>
    </g>
    <g id="xtick_6">
     <g id="line2d_6">
      <g>
       <use xlink:href="#m694c575d75" x="220.364557" y="177.248279" style="stroke: #000000; stroke-width: 0.8"/>
      </g>
     </g>
     <g id="text_6">
      <!-- &lt;=4096 -->
      <g transform="translate(191.749553 208.595941) rotate(-35) scale(0.08 -0.08)">
       <defs>
        <path id="DejaVuSans-39" d="M 703 97 
L 703 672 
Q 941 559 1184 500 
Q 1428 441 1663 441 
Q 2288 441 2617 861 
Q 2947 1281 2994 2138 
Q 2813 1869 2534 1725 
Q 2256 1581 1919 1581 
Q 1219 1581 811 2004 
Q 403 2428 403 3163 
Q 403 3881 828 4315 
Q 1253 4750 1959 4750 
Q 2769 4750 3195 4129 
Q 3622 3509 3622 2328 
Q 3622 1225 3098 567 
Q 2575 -91 1691 -91 
Q 1453 -91 1209 -44 
Q 966 3 703 97 
z
M 1959 2075 
Q 2384 2075 2632 2365 
Q 2881 2656 2881 3163 
Q 2881 3666 2632 3958 
Q 2384 4250 1959 4250 
Q 1534 4250 1286 3958 
Q 1038 3666 1038 3163 
Q 1038 2656 1286 2365 
Q 1534 2075 1959 2075 
z
" transform="scale(0.015625)"/>
       </defs>
       <use xlink:href="#DejaVuSans-3c"/>
       <use xlink:href="#DejaVuSans-3d" transform="translate(83.789062 0)"/>
       <use xlink:href="#DejaVuSans-34" transform="translate(167.578125 0)"/>
       <use xlink:href="#DejaVuSans-30" transform="translate(231.201172 0)"/>
       <use xlink:href="#DejaVuSans-39" transform="translate(294.824219 0)"/>
       <use xlink:href="#DejaVuSans-36" transform="translate(358.447266 0)"/>
      </g>
     </g>
    </g>
    <g id="xtick_7">
     <g id="line2d_7">
      <g>
       <use xlink:href="#m694c575d75" x="251.088627" y="177.248279" style="stroke: #000000; stroke-width: 0.8"/>
      </g>
     </g>
     <g id="text_7">
      <!-- &lt;=8192 -->
      <g transform="translate(222.473622 208.595941) rotate(-35) scale(0.08 -0.08)">
       <use xlink:href="#DejaVuSans-3c"/>
       <use xlink:href="#DejaVuSans-3d" transform="translate(83.789062 0)"/>
       <use xlink:href="#DejaVuSans-38" transform="translate(167.578125 0)"/>
       <use xlink:href="#DejaVuSans-31" transform="translate(231.201172 0)"/>
       <use xlink:href="#DejaVuSans-39" transform="translate(294.824219 0)"/>
       <use xlink:href="#DejaVuSans-32" transform="translate(358.447266 0)"/>
      </g>
     </g>
    </g>
    <g id="xtick_8">
     <g id="line2d_8">
      <g>
       <use xlink:href="#m694c575d75" x="281.812696" y="177.248279" style="stroke: #000000; stroke-width: 0.8"/>
      </g>
     </g>
     <g id="text_8">
      <!-- &gt;8192 -->
      <g transform="translate(258.689082 204.750828) rotate(-35) scale(0.08 -0.08)">
       <defs>
        <path id="DejaVuSans-3e" d="M 678 3150 
L 678 3719 
L 4684 2266 
L 4684 1747 
L 678 294 
L 678 863 
L 3897 2003 
L 678 3150 
z
" transform="scale(0.015625)"/>
       </defs>
       <use xlink:href="#DejaVuSans-3e"/>
       <use xlink:href="#DejaVuSans-38" transform="translate(83.789062 0)"/>
       <use xlink:href="#DejaVuSans-31" transform="translate(147.412109 0)"/>
       <use xlink:href="#DejaVuSans-39" transform="translate(211.035156 0)"/>
       <use xlink:href="#DejaVuSans-32" transform="translate(274.658203 0)"/>
      </g>
     </g>
    </g>
    <g id="text_9">
     <!-- Latency bucket (ms) -->
     <g transform="translate(123.116735 221.557243) scale(0.1 -0.1)">
      <defs>
       <path id="DejaVuSans-4c" d="M 628 4666 
L 1259 4666 
L 1259 531 
L 3531 531 
L 3531 0 
L 628 0 
L 628 4666 
z
" transform="scale(0.015625)"/>
       <path id="DejaVuSans-61" d="M 2194 1759 
Q 1497 1759 1228 1600 
Q 959 1441 959 1056 
Q 959 750 1161 570 
Q 1363 391 1709 391 
Q 2188 391 2477 730 
Q 2766 1069 2766 1631 
L 2766 1759 
L 2194 1759 
z
M 3341 1997 
L 3341 0 
L 2766 0 
L 2766 531 
Q 2569 213 2275 61 
Q 1981 -91 1556 -91 
Q 1019 -91 701 211 
Q 384 513 384 1019 
Q 384 1609 779 1909 
Q 1175 2209 1959 2209 
L 2766 2209 
L 2766 2266 
Q 2766 2663 2505 2880 
Q 2244 3097 1772 3097 
Q 1472 3097 1187 3025 
Q 903 2953 641 2809 
L 641 3341 
Q 956 3463 1253 3523 
Q 1550 3584 1831 3584 
Q 2591 3584 2966 3190 
Q 3341 2797 3341 1997 
z
" transform="scale(0.015625)"/>
       <path id="DejaVuSans-74" d="M 1172 4494 
L 1172 3500 
L 2356 3500 
L 2356 3053 
L 1172 3053 
L 1172 1153 
Q 1172 725 1289 603 
Q 1406 481 1766 481 
L 2356 481 
L 2356 0 
L 1766 0 
Q 1100 0 847 248 
Q 594 497 594 1153 
L 594 3053 
L 172 3053 
L 172 3500 
L 594 3500 
L 594 4494 
L 1172 4494 
z
" transform="scale(0.015625)"/>
       <path id="DejaVuSans-65" d="M 3597 1894 
L 3597 1613 
L 953 1613 
Q 991 1019 1311 708 
Q 1631 397 2203 397 
Q 2534 397 2845 478 
Q 3156 559 3463 722 
L 3463 178 
Q 3153 47 2828 -22 
Q 2503 -91 2169 -91 
Q 1331 -91 842 396 
Q 353 884 353 1716 
Q 353 2575 817 3079 
Q 1281 3584 2069 3584 
Q 2775 3584 3186 3129 
Q 3597 2675 3597 1894 
z
M 3022 2063 
Q 3016 2534 2758 2815 
Q 2500 3097 2075 3097 
Q 1594 3097 1305 2825 
Q 1016 2553 972 2059 
L 3022 2063 
z
" transform="scale(0.015625)"/>
       <path id="DejaVuSans-6e" d="M 3513 2113 
L 3513 0 
L 2938 0 
L 2938 2094 
Q 2938 2591 2744 2837 
Q 2550 3084 2163 3084 
Q 1697 3084 1428 2787 
Q 1159 2491 1159 1978 
L 1159 0 
L 581 0 
L 581 3500 
L 1159 3500 
L 1159 2956 
Q 1366 3272 1645 3428 
Q 1925 3584 2291 3584 
Q 2894 3584 3203 3211 
Q 3513 2838 3513 2113 
z
" transform="scale(0.015625)"/>
       <path id="DejaVuSans-63" d="M 3122 3366 
L 3122 2828 
Q 2878 2963 2633 3030 
Q 2388 3097 2138 3097 
Q 1578 3097 1268 2742 
Q 959 2388 959 1747 
Q 959 1106 1268 751 
Q 1578 397 2138 397 
Q 2388 397 2633 464 
Q 2878 531 3122 666 
L 3122 134 
Q 2881 22 2623 -34 
Q 2366 -91 2075 -91 
Q 1284 -91 818 406 
Q 353 903 353 1747 
Q 353 2603 823 3093 
Q 1294 3584 2113 3584 
Q 2378 3584 2631 3529 
Q 2884 3475 3122 3366 
z
" transform="scale(0.015625)"/>
       <path id="DejaVuSans-79" d="M 2059 -325 
Q 1816 -950 1584 -1140 
Q 1353 -1331 966 -1331 
L 506 -1331 
L 506 -850 
L 844 -850 
Q 1081 -850 1212 -737 
Q 1344 -625 1503 -206 
L 1606 56 
L 191 3500 
L 800 3500 
L 1894 763 
L 2988 3500 
L 3597 3500 
L 2059 -325 
z
" transform="scale(0.015625)"/>
       <path id="DejaVuSans-20" transform="scale(0.015625)"/>
       <path id="DejaVuSans-62" d="M 3116 1747 
Q 3116 2381 2855 2742 
Q 2594 3103 2138 3103 
Q 1681 3103 1420 2742 
Q 1159 2381 1159 1747 
Q 1159 1113 1420 752 
Q 1681 391 2138 391 
Q 2594 391 2855 752 
Q 3116 1113 3116 1747 
z
M 1159 2969 
Q 1341 3281 1617 3432 
Q 1894 3584 2278 3584 
Q 2916 3584 3314 3078 
Q 3713 2572 3713 1747 
Q 3713 922 3314 415 
Q 2916 -91 2278 -91 
Q 1894 -91 1617 61 
Q 1341 213 1159 525 
L 1159 0 
L 581 0 
L 581 4863 
L 1159 4863 
L 1159 2969 
z
" transform="scale(0.015625)"/>
       <path id="DejaVuSans-75" d="M 544 1381 
L 544 3500 
L 1119 3500 
L 1119 1403 
Q 1119 906 1312 657 
Q 1506 409 1894 409 
Q 2359 409 2629 706 
Q 2900 1003 2900 1516 
L 2900 3500 
L 3475 3500 
L 3475 0 
L 2900 0 
L 2900 538 
Q 2691 219 2414 64 
Q 2138 -91 1772 -91 
Q 1169 -91 856 284 
Q 544 659 544 1381 
z
M 1991 3584 
L 1991 3584 
z
" transform="scale(0.015625)"/>
       <path id="DejaVuSans-6b" d="M 581 4863 
L 1159 4863 
L 1159 1991 
L 2875 3500 
L 3609 3500 
L 1753 1863 
L 3688 0 
L 2938 0 
L 1159 1709 
L 1159 0 
L 581 0 
L 581 4863 
z
" transform="scale(0.015625)"/>
       <path id="DejaVuSans-28" d="M 1984 4856 
Q 1566 4138 1362 3434 
Q 1159 2731 1159 2009 
Q 1159 1288 1364 580 
Q 1569 -128 1984 -844 
L 1484 -844 
Q 1016 -109 783 600 
Q 550 1309 550 2009 
Q 550 2706 781 3412 
Q 1013 4119 1484 4856 
L 1984 4856 
z
" transform="scale(0.015625)"/>
       <path id="DejaVuSans-6d" d="M 3328 2828 
Q 3544 3216 3844 3400 
Q 4144 3584 4550 3584 
Q 5097 3584 5394 3201 
Q 5691 2819 5691 2113 
L 5691 0 
L 5113 0 
L 5113 2094 
Q 5113 2597 4934 2840 
Q 4756 3084 4391 3084 
Q 3944 3084 3684 2787 
Q 3425 2491 3425 1978 
L 3425 0 
L 2847 0 
L 2847 2094 
Q 2847 2600 2669 2842 
Q 2491 3084 2119 3084 
Q 1678 3084 1418 2786 
Q 1159 2488 1159 1978 
L 1159 0 
L 581 0 
L 581 3500 
L 1159 3500 
L 1159 2956 
Q 1356 3278 1631 3431 
Q 1906 3584 2284 3584 
Q 2666 3584 2933 3390 
Q 3200 3197 3328 2828 
z
" transform="scale(0.015625)"/>
       <path id="DejaVuSans-73" d="M 2834 3397 
L 2834 2853 
Q 2591 2978 2328 3040 
Q 2066 3103 1784 3103 
Q 1356 3103 1142 2972 
Q 928 2841 928 2578 
Q 928 2378 1081 2264 
Q 1234 2150 1697 2047 
L 1894 2003 
Q 2506 1872 2764 1633 
Q 3022 1394 3022 966 
Q 3022 478 2636 193 
Q 2250 -91 1575 -91 
Q 1294 -91 989 -36 
Q 684 19 347 128 
L 347 722 
Q 666 556 975 473 
Q 1284 391 1588 391 
Q 1994 391 2212 530 
Q 2431 669 2431 922 
Q 2431 1156 2273 1281 
Q 2116 1406 1581 1522 
L 1381 1569 
Q 847 1681 609 1914 
Q 372 2147 372 2553 
Q 372 3047 722 3315 
Q 1072 3584 1716 3584 
Q 2034 3584 2315 3537 
Q 2597 3491 2834 3397 
z
" transform="scale(0.015625)"/>
       <path id="DejaVuSans-29" d="M 513 4856 
L 1013 4856 
Q 1481 4119 1714 3412 
Q 1947 2706 1947 2009 
Q 1947 1309 1714 600 
Q 1481 -109 1013 -844 
L 513 -844 
Q 928 -128 1133 580 
Q 1338 1288 1338 2009 
Q 1338 2731 1133 3434 
Q 928 4138 513 4856 
z
" transform="scale(0.015625)"/>
      </defs>
      <use xlink:href="#DejaVuSans-4c"/>
      <use xlink:href="#DejaVuSans-61" transform="translate(55.712891 0)"/>
      <use xlink:href="#DejaVuSans-74" transform="translate(116.992188 0)"/>
      <use xlink:href="#DejaVuSans-65" transform="translate(156.201172 0)"/>
      <use xlink:href="#DejaVuSans-6e" transform="translate(217.724609 0)"/>
      <use xlink:href="#DejaVuSans-63" transform="translate(281.103516 0)"/>
      <use xlink:href="#DejaVuSans-79" transform="translate(336.083984 0)"/>
      <use xlink:href="#DejaVuSans-20" transform="translate(395.263672 0)"/>
      <use xlink:href="#DejaVuSans-62" transform="translate(427.050781 0)"/>
      <use xlink:href="#DejaVuSans-75" transform="translate(490.527344 0)"/>
      <use xlink:href="#DejaVuSans-63" transform="translate(553.90625 0)"/>
      <use xlink:href="#DejaVuSans-6b" transform="translate(608.886719 0)"/>
      <use xlink:href="#DejaVuSans-65" transform="translate(663.171875 0)"/>
      <use xlink:href="#DejaVuSans-74" transform="translate(724.695312 0)"/>
      <use xlink:href="#DejaVuSans-20" transform="translate(763.904297 0)"/>
      <use xlink:href="#DejaVuSans-28" transform="translate(795.691406 0)"/>
      <use xlink:href="#DejaVuSans-6d" transform="translate(834.705078 0)"/>
      <use xlink:href="#DejaVuSans-73" transform="translate(932.117188 0)"/>
      <use xlink:href="#DejaVuSans-29" transform="translate(984.216797 0)"/>
     </g>
    </g>
   </g>
   <g id="matplotlib.axis_2">
    <g id="ytick_1">
     <g id="line2d_9">
      <path d="M 43.148125 177.248279 
L 305.408782 177.248279 
" clip-path="url(#pa65a615cb1)" style="fill: none; stroke: #d9d9d9; stroke-width: 0.6; stroke-linecap: square"/>
     </g>
     <g id="line2d_10">
      <defs>
       <path id="m9c0677e126" d="M 0 0 
L -3.5 0 
" style="stroke: #000000; stroke-width: 0.8"/>
      </defs>
      <g>
       <use xlink:href="#m9c0677e126" x="43.148125" y="177.248279" style="stroke: #000000; stroke-width: 0.8"/>
      </g>
     </g>
     <g id="text_10">
      <!-- 0 -->
      <g transform="translate(31.058125 180.287654) scale(0.08 -0.08)">
       <use xlink:href="#DejaVuSans-30"/>
      </g>
     </g>
    </g>
    <g id="ytick_2">
     <g id="line2d_11">
      <path d="M 43.148125 154.114623 
L 305.408782 154.114623 
" clip-path="url(#pa65a615cb1)" style="fill: none; stroke: #d9d9d9; stroke-width: 0.6; stroke-linecap: square"/>
     </g>
     <g id="line2d_12">
      <g>
       <use xlink:href="#m9c0677e126" x="43.148125" y="154.114623" style="stroke: #000000; stroke-width: 0.8"/>
      </g>
     </g>
     <g id="text_11">
      <!-- 20 -->
      <g transform="translate(25.968125 157.153998) scale(0.08 -0.08)">
       <use xlink:href="#DejaVuSans-32"/>
       <use xlink:href="#DejaVuSans-30" transform="translate(63.623047 0)"/>
      </g>
     </g>
    </g>
    <g id="ytick_3">
     <g id="line2d_13">
      <path d="M 43.148125 130.980967 
L 305.408782 130.980967 
" clip-path="url(#pa65a615cb1)" style="fill: none; stroke: #d9d9d9; stroke-width: 0.6; stroke-linecap: square"/>
     </g>
     <g id="line2d_14">
      <g>
       <use xlink:href="#m9c0677e126" x="43.148125" y="130.980967" style="stroke: #000000; stroke-width: 0.8"/>
      </g>
     </g>
     <g id="text_12">
      <!-- 40 -->
      <g transform="translate(25.968125 134.020342) scale(0.08 -0.08)">
       <use xlink:href="#DejaVuSans-34"/>
       <use xlink:href="#DejaVuSans-30" transform="translate(63.623047 0)"/>
      </g>
     </g>
    </g>
    <g id="ytick_4">
     <g id="line2d_15">
      <path d="M 43.148125 107.847311 
L 305.408782 107.847311 
" clip-path="url(#pa65a615cb1)" style="fill: none; stroke: #d9d9d9; stroke-width: 0.6; stroke-linecap: square"/>
     </g>
     <g id="line2d_16">
      <g>
       <use xlink:href="#m9c0677e126" x="43.148125" y="107.847311" style="stroke: #000000; stroke-width: 0.8"/>
      </g>
     </g>
     <g id="text_13">
      <!-- 60 -->
      <g transform="translate(25.968125 110.886686) scale(0.08 -0.08)">
       <use xlink:href="#DejaVuSans-36"/>
       <use xlink:href="#DejaVuSans-30" transform="translate(63.623047 0)"/>
      </g>
     </g>
    </g>
    <g id="ytick_5">
     <g id="line2d_17">
      <path d="M 43.148125 84.713656 
L 305.408782 84.713656 
" clip-path="url(#pa65a615cb1)" style="fill: none; stroke: #d9d9d9; stroke-width: 0.6; stroke-linecap: square"/>
     </g>
     <g id="line2d_18">
      <g>
       <use xlink:href="#m9c0677e126" x="43.148125" y="84.713656" style="stroke: #000000; stroke-width: 0.8"/>
      </g>
     </g>
     <g id="text_14">
      <!-- 80 -->
      <g transform="translate(25.968125 87.753031) scale(0.08 -0.08)">
       <use xlink:href="#DejaVuSans-38"/>
       <use xlink:href="#DejaVuSans-30" transform="translate(63.623047 0)"/>
      </g>
     </g>
    </g>
    <g id="ytick_6">
     <g id="line2d_19">
      <path d="M 43.148125 61.58 
L 305.408782 61.58 
" clip-path="url(#pa65a615cb1)" style="fill: none; stroke: #d9d9d9; stroke-width: 0.6; stroke-linecap: square"/>
     </g>
     <g id="line2d_20">
      <g>
       <use xlink:href="#m9c0677e126" x="43.148125" y="61.58" style="stroke: #000000; stroke-width: 0.8"/>
      </g>
     </g>
     <g id="text_15">
      <!-- 100 -->
      <g transform="translate(20.878125 64.619375) scale(0.08 -0.08)">
       <use xlink:href="#DejaVuSans-31"/>
       <use xlink:href="#DejaVuSans-30" transform="translate(63.623047 0)"/>
       <use xlink:href="#DejaVuSans-30" transform="translate(127.246094 0)"/>
      </g>
     </g>
    </g>
    <g id="text_16">
     <!-- Fault samples (%) -->
     <g transform="translate(14.798438 164.029764) rotate(-90) scale(0.1 -0.1)">
      <defs>
       <path id="DejaVuSans-46" d="M 628 4666 
L 3309 4666 
L 3309 4134 
L 1259 4134 
L 1259 2759 
L 3109 2759 
L 3109 2228 
L 1259 2228 
L 1259 0 
L 628 0 
L 628 4666 
z
" transform="scale(0.015625)"/>
       <path id="DejaVuSans-6c" d="M 603 4863 
L 1178 4863 
L 1178 0 
L 603 0 
L 603 4863 
z
" transform="scale(0.015625)"/>
       <path id="DejaVuSans-70" d="M 1159 525 
L 1159 -1331 
L 581 -1331 
L 581 3500 
L 1159 3500 
L 1159 2969 
Q 1341 3281 1617 3432 
Q 1894 3584 2278 3584 
Q 2916 3584 3314 3078 
Q 3713 2572 3713 1747 
Q 3713 922 3314 415 
Q 2916 -91 2278 -91 
Q 1894 -91 1617 61 
Q 1341 213 1159 525 
z
M 3116 1747 
Q 3116 2381 2855 2742 
Q 2594 3103 2138 3103 
Q 1681 3103 1420 2742 
Q 1159 2381 1159 1747 
Q 1159 1113 1420 752 
Q 1681 391 2138 391 
Q 2594 391 2855 752 
Q 3116 1113 3116 1747 
z
" transform="scale(0.015625)"/>
       <path id="DejaVuSans-25" d="M 4653 2053 
Q 4381 2053 4226 1822 
Q 4072 1591 4072 1178 
Q 4072 772 4226 539 
Q 4381 306 4653 306 
Q 4919 306 5073 539 
Q 5228 772 5228 1178 
Q 5228 1588 5073 1820 
Q 4919 2053 4653 2053 
z
M 4653 2450 
Q 5147 2450 5437 2106 
Q 5728 1763 5728 1178 
Q 5728 594 5436 251 
Q 5144 -91 4653 -91 
Q 4153 -91 3862 251 
Q 3572 594 3572 1178 
Q 3572 1766 3864 2108 
Q 4156 2450 4653 2450 
z
M 1428 4353 
Q 1159 4353 1004 4120 
Q 850 3888 850 3481 
Q 850 3069 1003 2837 
Q 1156 2606 1428 2606 
Q 1700 2606 1854 2837 
Q 2009 3069 2009 3481 
Q 2009 3884 1853 4118 
Q 1697 4353 1428 4353 
z
M 4250 4750 
L 4750 4750 
L 1831 -91 
L 1331 -91 
L 4250 4750 
z
M 1428 4750 
Q 1922 4750 2215 4408 
Q 2509 4066 2509 3481 
Q 2509 2891 2217 2550 
Q 1925 2209 1428 2209 
Q 931 2209 642 2551 
Q 353 2894 353 3481 
Q 353 4063 643 4406 
Q 934 4750 1428 4750 
z
" transform="scale(0.015625)"/>
      </defs>
      <use xlink:href="#DejaVuSans-46"/>
      <use xlink:href="#DejaVuSans-61" transform="translate(48.394531 0)"/>
      <use xlink:href="#DejaVuSans-75" transform="translate(109.673828 0)"/>
      <use xlink:href="#DejaVuSans-6c" transform="translate(173.052734 0)"/>
      <use xlink:href="#DejaVuSans-74" transform="translate(200.835938 0)"/>
      <use xlink:href="#DejaVuSans-20" transform="translate(240.044922 0)"/>
      <use xlink:href="#DejaVuSans-73" transform="translate(271.832031 0)"/>
      <use xlink:href="#DejaVuSans-61" transform="translate(323.931641 0)"/>
      <use xlink:href="#DejaVuSans-6d" transform="translate(385.210938 0)"/>
      <use xlink:href="#DejaVuSans-70" transform="translate(482.623047 0)"/>
      <use xlink:href="#DejaVuSans-6c" transform="translate(546.099609 0)"/>
      <use xlink:href="#DejaVuSans-65" transform="translate(573.882812 0)"/>
      <use xlink:href="#DejaVuSans-73" transform="translate(635.40625 0)"/>
      <use xlink:href="#DejaVuSans-20" transform="translate(687.505859 0)"/>
      <use xlink:href="#DejaVuSans-28" transform="translate(719.292969 0)"/>
      <use xlink:href="#DejaVuSans-25" transform="translate(758.306641 0)"/>
      <use xlink:href="#DejaVuSans-29" transform="translate(853.326172 0)"/>
     </g>
    </g>
   </g>
   <g id="patch_3">
    <path d="M 55.069064 177.248279 
L 66.74421 177.248279 
L 66.74421 74.363166 
L 55.069064 74.363166 
z
" clip-path="url(#pa65a615cb1)" style="fill: #4c78a8; stroke: #222222; stroke-width: 0.35; stroke-linejoin: miter"/>
   </g>
   <g id="patch_4">
    <path d="M 85.793133 177.248279 
L 97.46828 177.248279 
L 97.46828 170.947081 
L 85.793133 170.947081 
z
" clip-path="url(#pa65a615cb1)" style="fill: #4c78a8; stroke: #222222; stroke-width: 0.35; stroke-linejoin: miter"/>
   </g>
   <g id="patch_5">
    <path d="M 116.517203 177.248279 
L 128.192349 177.248279 
L 128.192349 176.086173 
L 116.517203 176.086173 
z
" clip-path="url(#pa65a615cb1)" style="fill: #4c78a8; stroke: #222222; stroke-width: 0.35; stroke-linejoin: miter"/>
   </g>
   <g id="patch_6">
    <path d="M 147.241272 177.248279 
L 158.916419 177.248279 
L 158.916419 176.654313 
L 147.241272 176.654313 
z
" clip-path="url(#pa65a615cb1)" style="fill: #4c78a8; stroke: #222222; stroke-width: 0.35; stroke-linejoin: miter"/>
   </g>
   <g id="patch_7">
    <path d="M 177.965342 177.248279 
L 189.640488 177.248279 
L 189.640488 175.931225 
L 177.965342 175.931225 
z
" clip-path="url(#pa65a615cb1)" style="fill: #4c78a8; stroke: #222222; stroke-width: 0.35; stroke-linejoin: miter"/>
   </g>
   <g id="patch_8">
    <path d="M 208.689411 177.248279 
L 220.364557 177.248279 
L 220.364557 175.776278 
L 208.689411 175.776278 
z
" clip-path="url(#pa65a615cb1)" style="fill: #4c78a8; stroke: #222222; stroke-width: 0.35; stroke-linejoin: miter"/>
   </g>
   <g id="patch_9">
    <path d="M 239.413481 177.248279 
L 251.088627 177.248279 
L 251.088627 175.311435 
L 239.413481 175.311435 
z
" clip-path="url(#pa65a615cb1)" style="fill: #4c78a8; stroke: #222222; stroke-width: 0.35; stroke-linejoin: miter"/>
   </g>
   <g id="patch_10">
    <path d="M 270.13755 177.248279 
L 281.812696 177.248279 
L 281.812696 177.248279 
L 270.13755 177.248279 
z
" clip-path="url(#pa65a615cb1)" style="fill: #4c78a8; stroke: #222222; stroke-width: 0.35; stroke-linejoin: miter"/>
   </g>
   <g id="patch_11">
    <path d="M 66.74421 177.248279 
L 78.419357 177.248279 
L 78.419357 174.449009 
L 66.74421 174.449009 
z
" clip-path="url(#pa65a615cb1)" style="fill: #e45756; stroke: #222222; stroke-width: 0.35; stroke-linejoin: miter"/>
   </g>
   <g id="patch_12">
    <path d="M 97.46828 177.248279 
L 109.143426 177.248279 
L 109.143426 171.960215 
L 97.46828 171.960215 
z
" clip-path="url(#pa65a615cb1)" style="fill: #e45756; stroke: #222222; stroke-width: 0.35; stroke-linejoin: miter"/>
   </g>
   <g id="patch_13">
    <path d="M 128.192349 177.248279 
L 139.867496 177.248279 
L 139.867496 171.376619 
L 128.192349 171.376619 
z
" clip-path="url(#pa65a615cb1)" style="fill: #e45756; stroke: #222222; stroke-width: 0.35; stroke-linejoin: miter"/>
   </g>
   <g id="patch_14">
    <path d="M 158.916419 177.248279 
L 170.591565 177.248279 
L 170.591565 163.512597 
L 158.916419 163.512597 
z
" clip-path="url(#pa65a615cb1)" style="fill: #e45756; stroke: #222222; stroke-width: 0.35; stroke-linejoin: miter"/>
   </g>
   <g id="patch_15">
    <path d="M 189.640488 177.248279 
L 201.315634 177.248279 
L 201.315634 154.546965 
L 189.640488 154.546965 
z
" clip-path="url(#pa65a615cb1)" style="fill: #e45756; stroke: #222222; stroke-width: 0.35; stroke-linejoin: miter"/>
   </g>
   <g id="patch_16">
    <path d="M 220.364557 177.248279 
L 232.039704 177.248279 
L 232.039704 135.666008 
L 220.364557 135.666008 
z
" clip-path="url(#pa65a615cb1)" style="fill: #e45756; stroke: #222222; stroke-width: 0.35; stroke-linejoin: miter"/>
   </g>
   <g id="patch_17">
    <path d="M 251.088627 177.248279 
L 262.763773 177.248279 
L 262.763773 153.558256 
L 251.088627 153.558256 
z
" clip-path="url(#pa65a615cb1)" style="fill: #e45756; stroke: #222222; stroke-width: 0.35; stroke-linejoin: miter"/>
   </g>
   <g id="patch_18">
    <path d="M 281.812696 177.248279 
L 293.487843 177.248279 
L 293.487843 177.248279 
L 281.812696 177.248279 
z
" clip-path="url(#pa65a615cb1)" style="fill: #e45756; stroke: #222222; stroke-width: 0.35; stroke-linejoin: miter"/>
   </g>
   <g id="line2d_21">
    <path d="M 60.906637 177.248279 
L 60.906637 61.58 
" clip-path="url(#pa65a615cb1)" style="fill: none; stroke-dasharray: 1.15,1.8975; stroke-dashoffset: 0; stroke: #1f4e79; stroke-opacity: 0.8; stroke-width: 1.15"/>
   </g>
   <g id="line2d_22">
    <path d="M 164.753992 177.248279 
L 164.753992 61.58 
" clip-path="url(#pa65a615cb1)" style="fill: none; stroke-dasharray: 1.15,1.8975; stroke-dashoffset: 0; stroke: #b13a3a; stroke-opacity: 0.8; stroke-width: 1.15"/>
   </g>
   <g id="patch_19">
    <path d="M 43.148125 177.248279 
L 43.148125 61.58 
" style="fill: none; stroke: #000000; stroke-width: 0.8; stroke-linejoin: miter; stroke-linecap: square"/>
   </g>
   <g id="patch_20">
    <path d="M 305.408782 177.248279 
L 305.408782 61.58 
" style="fill: none; stroke: #000000; stroke-width: 0.8; stroke-linejoin: miter; stroke-linecap: square"/>
   </g>
   <g id="patch_21">
    <path d="M 43.148125 177.248279 
L 305.408782 177.248279 
" style="fill: none; stroke: #000000; stroke-width: 0.8; stroke-linejoin: miter; stroke-linecap: square"/>
   </g>
   <g id="patch_22">
    <path d="M 43.148125 61.58 
L 305.408782 61.58 
" style="fill: none; stroke: #000000; stroke-width: 0.8; stroke-linejoin: miter; stroke-linecap: square"/>
   </g>
   <g id="text_17">
    <!-- P80 &lt;=128 -->
    <g style="fill: #1f4e79" transform="translate(64.906637 76.285481) scale(0.08 -0.08)">
     <defs>
      <path id="DejaVuSans-50" d="M 1259 4147 
L 1259 2394 
L 2053 2394 
Q 2494 2394 2734 2622 
Q 2975 2850 2975 3272 
Q 2975 3691 2734 3919 
Q 2494 4147 2053 4147 
L 1259 4147 
z
M 628 4666 
L 2053 4666 
Q 2838 4666 3239 4311 
Q 3641 3956 3641 3272 
Q 3641 2581 3239 2228 
Q 2838 1875 2053 1875 
L 1259 1875 
L 1259 0 
L 628 0 
L 628 4666 
z
" transform="scale(0.015625)"/>
     </defs>
     <use xlink:href="#DejaVuSans-50"/>
     <use xlink:href="#DejaVuSans-38" transform="translate(60.302734 0)"/>
     <use xlink:href="#DejaVuSans-30" transform="translate(123.925781 0)"/>
     <use xlink:href="#DejaVuSans-20" transform="translate(187.548828 0)"/>
     <use xlink:href="#DejaVuSans-3c" transform="translate(219.335938 0)"/>
     <use xlink:href="#DejaVuSans-3d" transform="translate(303.125 0)"/>
     <use xlink:href="#DejaVuSans-31" transform="translate(386.914062 0)"/>
     <use xlink:href="#DejaVuSans-32" transform="translate(450.537109 0)"/>
     <use xlink:href="#DejaVuSans-38" transform="translate(514.160156 0)"/>
    </g>
   </g>
   <g id="text_18">
    <!-- P20 &lt;=1024 -->
    <g style="fill: #b13a3a" transform="translate(168.753992 72.109809) scale(0.08 -0.08)">
     <use xlink:href="#DejaVuSans-50"/>
     <use xlink:href="#DejaVuSans-32" transform="translate(60.302734 0)"/>
     <use xlink:href="#DejaVuSans-30" transform="translate(123.925781 0)"/>
     <use xlink:href="#DejaVuSans-20" transform="translate(187.548828 0)"/>
     <use xlink:href="#DejaVuSans-3c" transform="translate(219.335938 0)"/>
     <use xlink:href="#DejaVuSans-3d" transform="translate(303.125 0)"/>
     <use xlink:href="#DejaVuSans-31" transform="translate(386.914062 0)"/>
     <use xlink:href="#DejaVuSans-30" transform="translate(450.537109 0)"/>
     <use xlink:href="#DejaVuSans-32" transform="translate(514.160156 0)"/>
     <use xlink:href="#DejaVuSans-34" transform="translate(577.783203 0)"/>
    </g>
   </g>
   <g id="text_19">
    <!-- (a) GAPBS BC, window 32 (332s) -->
    <g transform="translate(96.812633 43.942078) scale(0.095 -0.095)">
     <defs>
      <path id="DejaVuSans-47" d="M 3809 666 
L 3809 1919 
L 2778 1919 
L 2778 2438 
L 4434 2438 
L 4434 434 
Q 4069 175 3628 42 
Q 3188 -91 2688 -91 
Q 1594 -91 976 548 
Q 359 1188 359 2328 
Q 359 3472 976 4111 
Q 1594 4750 2688 4750 
Q 3144 4750 3555 4637 
Q 3966 4525 4313 4306 
L 4313 3634 
Q 3963 3931 3569 4081 
Q 3175 4231 2741 4231 
Q 1884 4231 1454 3753 
Q 1025 3275 1025 2328 
Q 1025 1384 1454 906 
Q 1884 428 2741 428 
Q 3075 428 3337 486 
Q 3600 544 3809 666 
z
" transform="scale(0.015625)"/>
      <path id="DejaVuSans-41" d="M 2188 4044 
L 1331 1722 
L 3047 1722 
L 2188 4044 
z
M 1831 4666 
L 2547 4666 
L 4325 0 
L 3669 0 
L 3244 1197 
L 1141 1197 
L 716 0 
L 50 0 
L 1831 4666 
z
" transform="scale(0.015625)"/>
      <path id="DejaVuSans-42" d="M 1259 2228 
L 1259 519 
L 2272 519 
Q 2781 519 3026 730 
Q 3272 941 3272 1375 
Q 3272 1813 3026 2020 
Q 2781 2228 2272 2228 
L 1259 2228 
z
M 1259 4147 
L 1259 2741 
L 2194 2741 
Q 2656 2741 2882 2914 
Q 3109 3088 3109 3444 
Q 3109 3797 2882 3972 
Q 2656 4147 2194 4147 
L 1259 4147 
z
M 628 4666 
L 2241 4666 
Q 2963 4666 3353 4366 
Q 3744 4066 3744 3513 
Q 3744 3084 3544 2831 
Q 3344 2578 2956 2516 
Q 3422 2416 3680 2098 
Q 3938 1781 3938 1306 
Q 3938 681 3513 340 
Q 3088 0 2303 0 
L 628 0 
L 628 4666 
z
" transform="scale(0.015625)"/>
      <path id="DejaVuSans-53" d="M 3425 4513 
L 3425 3897 
Q 3066 4069 2747 4153 
Q 2428 4238 2131 4238 
Q 1616 4238 1336 4038 
Q 1056 3838 1056 3469 
Q 1056 3159 1242 3001 
Q 1428 2844 1947 2747 
L 2328 2669 
Q 3034 2534 3370 2195 
Q 3706 1856 3706 1288 
Q 3706 609 3251 259 
Q 2797 -91 1919 -91 
Q 1588 -91 1214 -16 
Q 841 59 441 206 
L 441 856 
Q 825 641 1194 531 
Q 1563 422 1919 422 
Q 2459 422 2753 634 
Q 3047 847 3047 1241 
Q 3047 1584 2836 1778 
Q 2625 1972 2144 2069 
L 1759 2144 
Q 1053 2284 737 2584 
Q 422 2884 422 3419 
Q 422 4038 858 4394 
Q 1294 4750 2059 4750 
Q 2388 4750 2728 4690 
Q 3069 4631 3425 4513 
z
" transform="scale(0.015625)"/>
      <path id="DejaVuSans-43" d="M 4122 4306 
L 4122 3641 
Q 3803 3938 3442 4084 
Q 3081 4231 2675 4231 
Q 1875 4231 1450 3742 
Q 1025 3253 1025 2328 
Q 1025 1406 1450 917 
Q 1875 428 2675 428 
Q 3081 428 3442 575 
Q 3803 722 4122 1019 
L 4122 359 
Q 3791 134 3420 21 
Q 3050 -91 2638 -91 
Q 1578 -91 968 557 
Q 359 1206 359 2328 
Q 359 3453 968 4101 
Q 1578 4750 2638 4750 
Q 3056 4750 3426 4639 
Q 3797 4528 4122 4306 
z
" transform="scale(0.015625)"/>
      <path id="DejaVuSans-2c" d="M 750 794 
L 1409 794 
L 1409 256 
L 897 -744 
L 494 -744 
L 750 256 
L 750 794 
z
" transform="scale(0.015625)"/>
      <path id="DejaVuSans-77" d="M 269 3500 
L 844 3500 
L 1563 769 
L 2278 3500 
L 2956 3500 
L 3675 769 
L 4391 3500 
L 4966 3500 
L 4050 0 
L 3372 0 
L 2619 2869 
L 1863 0 
L 1184 0 
L 269 3500 
z
" transform="scale(0.015625)"/>
      <path id="DejaVuSans-69" d="M 603 3500 
L 1178 3500 
L 1178 0 
L 603 0 
L 603 3500 
z
M 603 4863 
L 1178 4863 
L 1178 4134 
L 603 4134 
L 603 4863 
z
" transform="scale(0.015625)"/>
      <path id="DejaVuSans-64" d="M 2906 2969 
L 2906 4863 
L 3481 4863 
L 3481 0 
L 2906 0 
L 2906 525 
Q 2725 213 2448 61 
Q 2172 -91 1784 -91 
Q 1150 -91 751 415 
Q 353 922 353 1747 
Q 353 2572 751 3078 
Q 1150 3584 1784 3584 
Q 2172 3584 2448 3432 
Q 2725 3281 2906 2969 
z
M 947 1747 
Q 947 1113 1208 752 
Q 1469 391 1925 391 
Q 2381 391 2643 752 
Q 2906 1113 2906 1747 
Q 2906 2381 2643 2742 
Q 2381 3103 1925 3103 
Q 1469 3103 1208 2742 
Q 947 2381 947 1747 
z
" transform="scale(0.015625)"/>
      <path id="DejaVuSans-6f" d="M 1959 3097 
Q 1497 3097 1228 2736 
Q 959 2375 959 1747 
Q 959 1119 1226 758 
Q 1494 397 1959 397 
Q 2419 397 2687 759 
Q 2956 1122 2956 1747 
Q 2956 2369 2687 2733 
Q 2419 3097 1959 3097 
z
M 1959 3584 
Q 2709 3584 3137 3096 
Q 3566 2609 3566 1747 
Q 3566 888 3137 398 
Q 2709 -91 1959 -91 
Q 1206 -91 779 398 
Q 353 888 353 1747 
Q 353 2609 779 3096 
Q 1206 3584 1959 3584 
z
" transform="scale(0.015625)"/>
      <path id="DejaVuSans-33" d="M 2597 2516 
Q 3050 2419 3304 2112 
Q 3559 1806 3559 1356 
Q 3559 666 3084 287 
Q 2609 -91 1734 -91 
Q 1441 -91 1130 -33 
Q 819 25 488 141 
L 488 750 
Q 750 597 1062 519 
Q 1375 441 1716 441 
Q 2309 441 2620 675 
Q 2931 909 2931 1356 
Q 2931 1769 2642 2001 
Q 2353 2234 1838 2234 
L 1294 2234 
L 1294 2753 
L 1863 2753 
Q 2328 2753 2575 2939 
Q 2822 3125 2822 3475 
Q 2822 3834 2567 4026 
Q 2313 4219 1838 4219 
Q 1578 4219 1281 4162 
Q 984 4106 628 3988 
L 628 4550 
Q 988 4650 1302 4700 
Q 1616 4750 1894 4750 
Q 2613 4750 3031 4423 
Q 3450 4097 3450 3541 
Q 3450 3153 3228 2886 
Q 3006 2619 2597 2516 
z
" transform="scale(0.015625)"/>
     </defs>
     <use xlink:href="#DejaVuSans-28"/>
     <use xlink:href="#DejaVuSans-61" transform="translate(39.013672 0)"/>
     <use xlink:href="#DejaVuSans-29" transform="translate(100.292969 0)"/>
     <use xlink:href="#DejaVuSans-20" transform="translate(139.306641 0)"/>
     <use xlink:href="#DejaVuSans-47" transform="translate(171.09375 0)"/>
     <use xlink:href="#DejaVuSans-41" transform="translate(248.583984 0)"/>
     <use xlink:href="#DejaVuSans-50" transform="translate(316.992188 0)"/>
     <use xlink:href="#DejaVuSans-42" transform="translate(377.294922 0)"/>
     <use xlink:href="#DejaVuSans-53" transform="translate(444.148438 0)"/>
     <use xlink:href="#DejaVuSans-20" transform="translate(507.625 0)"/>
     <use xlink:href="#DejaVuSans-42" transform="translate(539.412109 0)"/>
     <use xlink:href="#DejaVuSans-43" transform="translate(606.265625 0)"/>
     <use xlink:href="#DejaVuSans-2c" transform="translate(676.089844 0)"/>
     <use xlink:href="#DejaVuSans-20" transform="translate(707.876953 0)"/>
     <use xlink:href="#DejaVuSans-77" transform="translate(739.664062 0)"/>
     <use xlink:href="#DejaVuSans-69" transform="translate(821.451172 0)"/>
     <use xlink:href="#DejaVuSans-6e" transform="translate(849.234375 0)"/>
     <use xlink:href="#DejaVuSans-64" transform="translate(912.613281 0)"/>
     <use xlink:href="#DejaVuSans-6f" transform="translate(976.089844 0)"/>
     <use xlink:href="#DejaVuSans-77" transform="translate(1037.271484 0)"/>
     <use xlink:href="#DejaVuSans-20" transform="translate(1119.058594 0)"/>
     <use xlink:href="#DejaVuSans-33" transform="translate(1150.845703 0)"/>
     <use xlink:href="#DejaVuSans-32" transform="translate(1214.46875 0)"/>
     <use xlink:href="#DejaVuSans-20" transform="translate(1278.091797 0)"/>
     <use xlink:href="#DejaVuSans-28" transform="translate(1309.878906 0)"/>
     <use xlink:href="#DejaVuSans-33" transform="translate(1348.892578 0)"/>
     <use xlink:href="#DejaVuSans-33" transform="translate(1412.515625 0)"/>
     <use xlink:href="#DejaVuSans-32" transform="translate(1476.138672 0)"/>
     <use xlink:href="#DejaVuSans-73" transform="translate(1539.761719 0)"/>
     <use xlink:href="#DejaVuSans-29" transform="translate(1591.861328 0)"/>
    </g>
    <!-- Local n=8,958 / Remote n=139,334 -->
    <g transform="translate(88.777711 54.58) scale(0.095 -0.095)">
     <defs>
      <path id="DejaVuSans-2f" d="M 1625 4666 
L 2156 4666 
L 531 -594 
L 0 -594 
L 1625 4666 
z
" transform="scale(0.015625)"/>
      <path id="DejaVuSans-52" d="M 2841 2188 
Q 3044 2119 3236 1894 
Q 3428 1669 3622 1275 
L 4263 0 
L 3584 0 
L 2988 1197 
Q 2756 1666 2539 1819 
Q 2322 1972 1947 1972 
L 1259 1972 
L 1259 0 
L 628 0 
L 628 4666 
L 2053 4666 
Q 2853 4666 3247 4331 
Q 3641 3997 3641 3322 
Q 3641 2881 3436 2590 
Q 3231 2300 2841 2188 
z
M 1259 4147 
L 1259 2491 
L 2053 2491 
Q 2509 2491 2742 2702 
Q 2975 2913 2975 3322 
Q 2975 3731 2742 3939 
Q 2509 4147 2053 4147 
L 1259 4147 
z
" transform="scale(0.015625)"/>
     </defs>
     <use xlink:href="#DejaVuSans-4c"/>
     <use xlink:href="#DejaVuSans-6f" transform="translate(53.962891 0)"/>
     <use xlink:href="#DejaVuSans-63" transform="translate(115.144531 0)"/>
     <use xlink:href="#DejaVuSans-61" transform="translate(170.125 0)"/>
     <use xlink:href="#DejaVuSans-6c" transform="translate(231.404297 0)"/>
     <use xlink:href="#DejaVuSans-20" transform="translate(259.1875 0)"/>
     <use xlink:href="#DejaVuSans-6e" transform="translate(290.974609 0)"/>
     <use xlink:href="#DejaVuSans-3d" transform="translate(354.353516 0)"/>
     <use xlink:href="#DejaVuSans-38" transform="translate(438.142578 0)"/>
     <use xlink:href="#DejaVuSans-2c" transform="translate(501.765625 0)"/>
     <use xlink:href="#DejaVuSans-39" transform="translate(533.552734 0)"/>
     <use xlink:href="#DejaVuSans-35" transform="translate(597.175781 0)"/>
     <use xlink:href="#DejaVuSans-38" transform="translate(660.798828 0)"/>
     <use xlink:href="#DejaVuSans-20" transform="translate(724.421875 0)"/>
     <use xlink:href="#DejaVuSans-2f" transform="translate(756.208984 0)"/>
     <use xlink:href="#DejaVuSans-20" transform="translate(789.900391 0)"/>
     <use xlink:href="#DejaVuSans-52" transform="translate(821.6875 0)"/>
     <use xlink:href="#DejaVuSans-65" transform="translate(886.669922 0)"/>
     <use xlink:href="#DejaVuSans-6d" transform="translate(948.193359 0)"/>
     <use xlink:href="#DejaVuSans-6f" transform="translate(1045.605469 0)"/>
     <use xlink:href="#DejaVuSans-74" transform="translate(1106.787109 0)"/>
     <use xlink:href="#DejaVuSans-65" transform="translate(1145.996094 0)"/>
     <use xlink:href="#DejaVuSans-20" transform="translate(1207.519531 0)"/>
     <use xlink:href="#DejaVuSans-6e" transform="translate(1239.306641 0)"/>
     <use xlink:href="#DejaVuSans-3d" transform="translate(1302.685547 0)"/>
     <use xlink:href="#DejaVuSans-31" transform="translate(1386.474609 0)"/>
     <use xlink:href="#DejaVuSans-33" transform="translate(1450.097656 0)"/>
     <use xlink:href="#DejaVuSans-39" transform="translate(1513.720703 0)"/>
     <use xlink:href="#DejaVuSans-2c" transform="translate(1577.34375 0)"/>
     <use xlink:href="#DejaVuSans-33" transform="translate(1609.130859 0)"/>
     <use xlink:href="#DejaVuSans-33" transform="translate(1672.753906 0)"/>
     <use xlink:href="#DejaVuSans-34" transform="translate(1736.376953 0)"/>
    </g>
   </g>
   <g id="PathCollection_1">
    <defs>
     <path id="mc66aa3d88b" d="M -0 3.24037 
L 3.24037 -3.24037 
L -3.24037 -3.24037 
z
" style="stroke: #ffffff; stroke-width: 0.45"/>
    </defs>
    <g clip-path="url(#pa65a615cb1)">
     <use xlink:href="#mc66aa3d88b" x="60.906637" y="66.206731" style="fill: #1f4e79; stroke: #ffffff; stroke-width: 0.45"/>
    </g>
   </g>
   <g id="PathCollection_2">
    <defs>
     <path id="m5e53989da2" d="M 0 -3.24037 
L -3.24037 3.24037 
L 3.24037 3.24037 
z
" style="stroke: #ffffff; stroke-width: 0.45"/>
    </defs>
    <g clip-path="url(#pa65a615cb1)">
     <use xlink:href="#m5e53989da2" x="164.753992" y="77.773559" style="fill: #b13a3a; stroke: #ffffff; stroke-width: 0.45"/>
    </g>
   </g>
  </g>
  <g id="axes_2">
   <g id="patch_23">
    <path d="M 327.887468 177.248279 
L 590.148125 177.248279 
L 590.148125 61.58 
L 327.887468 61.58 
z
" style="fill: #ffffff"/>
   </g>
   <g id="matplotlib.axis_3">
    <g id="xtick_9">
     <g id="line2d_23">
      <g>
       <use xlink:href="#m694c575d75" x="351.483554" y="177.248279" style="stroke: #000000; stroke-width: 0.8"/>
      </g>
     </g>
     <g id="text_20">
      <!-- &lt;=128 -->
      <g transform="translate(327.038033 205.676437) rotate(-35) scale(0.08 -0.08)">
       <use xlink:href="#DejaVuSans-3c"/>
       <use xlink:href="#DejaVuSans-3d" transform="translate(83.789062 0)"/>
       <use xlink:href="#DejaVuSans-31" transform="translate(167.578125 0)"/>
       <use xlink:href="#DejaVuSans-32" transform="translate(231.201172 0)"/>
       <use xlink:href="#DejaVuSans-38" transform="translate(294.824219 0)"/>
      </g>
     </g>
    </g>
    <g id="xtick_10">
     <g id="line2d_24">
      <g>
       <use xlink:href="#m694c575d75" x="382.207623" y="177.248279" style="stroke: #000000; stroke-width: 0.8"/>
      </g>
     </g>
     <g id="text_21">
      <!-- &lt;=256 -->
      <g transform="translate(357.762103 205.676437) rotate(-35) scale(0.08 -0.08)">
       <use xlink:href="#DejaVuSans-3c"/>
       <use xlink:href="#DejaVuSans-3d" transform="translate(83.789062 0)"/>
       <use xlink:href="#DejaVuSans-32" transform="translate(167.578125 0)"/>
       <use xlink:href="#DejaVuSans-35" transform="translate(231.201172 0)"/>
       <use xlink:href="#DejaVuSans-36" transform="translate(294.824219 0)"/>
      </g>
     </g>
    </g>
    <g id="xtick_11">
     <g id="line2d_25">
      <g>
       <use xlink:href="#m694c575d75" x="412.931693" y="177.248279" style="stroke: #000000; stroke-width: 0.8"/>
      </g>
     </g>
     <g id="text_22">
      <!-- &lt;=512 -->
      <g transform="translate(388.486172 205.676437) rotate(-35) scale(0.08 -0.08)">
       <use xlink:href="#DejaVuSans-3c"/>
       <use xlink:href="#DejaVuSans-3d" transform="translate(83.789062 0)"/>
       <use xlink:href="#DejaVuSans-35" transform="translate(167.578125 0)"/>
       <use xlink:href="#DejaVuSans-31" transform="translate(231.201172 0)"/>
       <use xlink:href="#DejaVuSans-32" transform="translate(294.824219 0)"/>
      </g>
     </g>
    </g>
    <g id="xtick_12">
     <g id="line2d_26">
      <g>
       <use xlink:href="#m694c575d75" x="443.655762" y="177.248279" style="stroke: #000000; stroke-width: 0.8"/>
      </g>
     </g>
     <g id="text_23">
      <!-- &lt;=1024 -->
      <g transform="translate(415.040758 208.595941) rotate(-35) scale(0.08 -0.08)">
       <use xlink:href="#DejaVuSans-3c"/>
       <use xlink:href="#DejaVuSans-3d" transform="translate(83.789062 0)"/>
       <use xlink:href="#DejaVuSans-31" transform="translate(167.578125 0)"/>
       <use xlink:href="#DejaVuSans-30" transform="translate(231.201172 0)"/>
       <use xlink:href="#DejaVuSans-32" transform="translate(294.824219 0)"/>
       <use xlink:href="#DejaVuSans-34" transform="translate(358.447266 0)"/>
      </g>
     </g>
    </g>
    <g id="xtick_13">
     <g id="line2d_27">
      <g>
       <use xlink:href="#m694c575d75" x="474.379831" y="177.248279" style="stroke: #000000; stroke-width: 0.8"/>
      </g>
     </g>
     <g id="text_24">
      <!-- &lt;=2048 -->
      <g transform="translate(445.764827 208.595941) rotate(-35) scale(0.08 -0.08)">
       <use xlink:href="#DejaVuSans-3c"/>
       <use xlink:href="#DejaVuSans-3d" transform="translate(83.789062 0)"/>
       <use xlink:href="#DejaVuSans-32" transform="translate(167.578125 0)"/>
       <use xlink:href="#DejaVuSans-30" transform="translate(231.201172 0)"/>
       <use xlink:href="#DejaVuSans-34" transform="translate(294.824219 0)"/>
       <use xlink:href="#DejaVuSans-38" transform="translate(358.447266 0)"/>
      </g>
     </g>
    </g>
    <g id="xtick_14">
     <g id="line2d_28">
      <g>
       <use xlink:href="#m694c575d75" x="505.103901" y="177.248279" style="stroke: #000000; stroke-width: 0.8"/>
      </g>
     </g>
     <g id="text_25">
      <!-- &lt;=4096 -->
      <g transform="translate(476.488896 208.595941) rotate(-35) scale(0.08 -0.08)">
       <use xlink:href="#DejaVuSans-3c"/>
       <use xlink:href="#DejaVuSans-3d" transform="translate(83.789062 0)"/>
       <use xlink:href="#DejaVuSans-34" transform="translate(167.578125 0)"/>
       <use xlink:href="#DejaVuSans-30" transform="translate(231.201172 0)"/>
       <use xlink:href="#DejaVuSans-39" transform="translate(294.824219 0)"/>
       <use xlink:href="#DejaVuSans-36" transform="translate(358.447266 0)"/>
      </g>
     </g>
    </g>
    <g id="xtick_15">
     <g id="line2d_29">
      <g>
       <use xlink:href="#m694c575d75" x="535.82797" y="177.248279" style="stroke: #000000; stroke-width: 0.8"/>
      </g>
     </g>
     <g id="text_26">
      <!-- &lt;=8192 -->
      <g transform="translate(507.212966 208.595941) rotate(-35) scale(0.08 -0.08)">
       <use xlink:href="#DejaVuSans-3c"/>
       <use xlink:href="#DejaVuSans-3d" transform="translate(83.789062 0)"/>
       <use xlink:href="#DejaVuSans-38" transform="translate(167.578125 0)"/>
       <use xlink:href="#DejaVuSans-31" transform="translate(231.201172 0)"/>
       <use xlink:href="#DejaVuSans-39" transform="translate(294.824219 0)"/>
       <use xlink:href="#DejaVuSans-32" transform="translate(358.447266 0)"/>
      </g>
     </g>
    </g>
    <g id="xtick_16">
     <g id="line2d_30">
      <g>
       <use xlink:href="#m694c575d75" x="566.55204" y="177.248279" style="stroke: #000000; stroke-width: 0.8"/>
      </g>
     </g>
     <g id="text_27">
      <!-- &gt;8192 -->
      <g transform="translate(543.428426 204.750828) rotate(-35) scale(0.08 -0.08)">
       <use xlink:href="#DejaVuSans-3e"/>
       <use xlink:href="#DejaVuSans-38" transform="translate(83.789062 0)"/>
       <use xlink:href="#DejaVuSans-31" transform="translate(147.412109 0)"/>
       <use xlink:href="#DejaVuSans-39" transform="translate(211.035156 0)"/>
       <use xlink:href="#DejaVuSans-32" transform="translate(274.658203 0)"/>
      </g>
     </g>
    </g>
    <g id="text_28">
     <!-- Latency bucket (ms) -->
     <g transform="translate(407.856078 221.557243) scale(0.1 -0.1)">
      <use xlink:href="#DejaVuSans-4c"/>
      <use xlink:href="#DejaVuSans-61" transform="translate(55.712891 0)"/>
      <use xlink:href="#DejaVuSans-74" transform="translate(116.992188 0)"/>
      <use xlink:href="#DejaVuSans-65" transform="translate(156.201172 0)"/>
      <use xlink:href="#DejaVuSans-6e" transform="translate(217.724609 0)"/>
      <use xlink:href="#DejaVuSans-63" transform="translate(281.103516 0)"/>
      <use xlink:href="#DejaVuSans-79" transform="translate(336.083984 0)"/>
      <use xlink:href="#DejaVuSans-20" transform="translate(395.263672 0)"/>
      <use xlink:href="#DejaVuSans-62" transform="translate(427.050781 0)"/>
      <use xlink:href="#DejaVuSans-75" transform="translate(490.527344 0)"/>
      <use xlink:href="#DejaVuSans-63" transform="translate(553.90625 0)"/>
      <use xlink:href="#DejaVuSans-6b" transform="translate(608.886719 0)"/>
      <use xlink:href="#DejaVuSans-65" transform="translate(663.171875 0)"/>
      <use xlink:href="#DejaVuSans-74" transform="translate(724.695312 0)"/>
      <use xlink:href="#DejaVuSans-20" transform="translate(763.904297 0)"/>
      <use xlink:href="#DejaVuSans-28" transform="translate(795.691406 0)"/>
      <use xlink:href="#DejaVuSans-6d" transform="translate(834.705078 0)"/>
      <use xlink:href="#DejaVuSans-73" transform="translate(932.117188 0)"/>
      <use xlink:href="#DejaVuSans-29" transform="translate(984.216797 0)"/>
     </g>
    </g>
   </g>
   <g id="matplotlib.axis_4">
    <g id="ytick_7">
     <g id="line2d_31">
      <path d="M 327.887468 177.248279 
L 590.148125 177.248279 
" clip-path="url(#ped0f85e0f8)" style="fill: none; stroke: #d9d9d9; stroke-width: 0.6; stroke-linecap: square"/>
     </g>
     <g id="line2d_32">
      <g>
       <use xlink:href="#m9c0677e126" x="327.887468" y="177.248279" style="stroke: #000000; stroke-width: 0.8"/>
      </g>
     </g>
    </g>
    <g id="ytick_8">
     <g id="line2d_33">
      <path d="M 327.887468 154.114623 
L 590.148125 154.114623 
" clip-path="url(#ped0f85e0f8)" style="fill: none; stroke: #d9d9d9; stroke-width: 0.6; stroke-linecap: square"/>
     </g>
     <g id="line2d_34">
      <g>
       <use xlink:href="#m9c0677e126" x="327.887468" y="154.114623" style="stroke: #000000; stroke-width: 0.8"/>
      </g>
     </g>
    </g>
    <g id="ytick_9">
     <g id="line2d_35">
      <path d="M 327.887468 130.980967 
L 590.148125 130.980967 
" clip-path="url(#ped0f85e0f8)" style="fill: none; stroke: #d9d9d9; stroke-width: 0.6; stroke-linecap: square"/>
     </g>
     <g id="line2d_36">
      <g>
       <use xlink:href="#m9c0677e126" x="327.887468" y="130.980967" style="stroke: #000000; stroke-width: 0.8"/>
      </g>
     </g>
    </g>
    <g id="ytick_10">
     <g id="line2d_37">
      <path d="M 327.887468 107.847311 
L 590.148125 107.847311 
" clip-path="url(#ped0f85e0f8)" style="fill: none; stroke: #d9d9d9; stroke-width: 0.6; stroke-linecap: square"/>
     </g>
     <g id="line2d_38">
      <g>
       <use xlink:href="#m9c0677e126" x="327.887468" y="107.847311" style="stroke: #000000; stroke-width: 0.8"/>
      </g>
     </g>
    </g>
    <g id="ytick_11">
     <g id="line2d_39">
      <path d="M 327.887468 84.713656 
L 590.148125 84.713656 
" clip-path="url(#ped0f85e0f8)" style="fill: none; stroke: #d9d9d9; stroke-width: 0.6; stroke-linecap: square"/>
     </g>
     <g id="line2d_40">
      <g>
       <use xlink:href="#m9c0677e126" x="327.887468" y="84.713656" style="stroke: #000000; stroke-width: 0.8"/>
      </g>
     </g>
    </g>
    <g id="ytick_12">
     <g id="line2d_41">
      <path d="M 327.887468 61.58 
L 590.148125 61.58 
" clip-path="url(#ped0f85e0f8)" style="fill: none; stroke: #d9d9d9; stroke-width: 0.6; stroke-linecap: square"/>
     </g>
     <g id="line2d_42">
      <g>
       <use xlink:href="#m9c0677e126" x="327.887468" y="61.58" style="stroke: #000000; stroke-width: 0.8"/>
      </g>
     </g>
    </g>
   </g>
   <g id="patch_24">
    <path d="M 339.808407 177.248279 
L 351.483554 177.248279 
L 351.483554 133.54922 
L 339.808407 133.54922 
z
" clip-path="url(#ped0f85e0f8)" style="fill: #4c78a8; stroke: #222222; stroke-width: 0.35; stroke-linejoin: miter"/>
   </g>
   <g id="patch_25">
    <path d="M 370.532477 177.248279 
L 382.207623 177.248279 
L 382.207623 156.227052 
L 370.532477 156.227052 
z
" clip-path="url(#ped0f85e0f8)" style="fill: #4c78a8; stroke: #222222; stroke-width: 0.35; stroke-linejoin: miter"/>
   </g>
   <g id="patch_26">
    <path d="M 401.256546 177.248279 
L 412.931693 177.248279 
L 412.931693 155.724678 
L 401.256546 155.724678 
z
" clip-path="url(#ped0f85e0f8)" style="fill: #4c78a8; stroke: #222222; stroke-width: 0.35; stroke-linejoin: miter"/>
   </g>
   <g id="patch_27">
    <path d="M 431.980616 177.248279 
L 443.655762 177.248279 
L 443.655762 161.561366 
L 431.980616 161.561366 
z
" clip-path="url(#ped0f85e0f8)" style="fill: #4c78a8; stroke: #222222; stroke-width: 0.35; stroke-linejoin: miter"/>
   </g>
   <g id="patch_28">
    <path d="M 462.704685 177.248279 
L 474.379831 177.248279 
L 474.379831 167.345498 
L 462.704685 167.345498 
z
" clip-path="url(#ped0f85e0f8)" style="fill: #4c78a8; stroke: #222222; stroke-width: 0.35; stroke-linejoin: miter"/>
   </g>
   <g id="patch_29">
    <path d="M 493.428754 177.248279 
L 505.103901 177.248279 
L 505.103901 173.612208 
L 493.428754 173.612208 
z
" clip-path="url(#ped0f85e0f8)" style="fill: #4c78a8; stroke: #222222; stroke-width: 0.35; stroke-linejoin: miter"/>
   </g>
   <g id="patch_30">
    <path d="M 524.152824 177.248279 
L 535.82797 177.248279 
L 535.82797 177.04965 
L 524.152824 177.04965 
z
" clip-path="url(#ped0f85e0f8)" style="fill: #4c78a8; stroke: #222222; stroke-width: 0.35; stroke-linejoin: miter"/>
   </g>
   <g id="patch_31">
    <path d="M 554.876893 177.248279 
L 566.55204 177.248279 
L 566.55204 177.248279 
L 554.876893 177.248279 
z
" clip-path="url(#ped0f85e0f8)" style="fill: #4c78a8; stroke: #222222; stroke-width: 0.35; stroke-linejoin: miter"/>
   </g>
   <g id="patch_32">
    <path d="M 351.483554 177.248279 
L 363.1587 177.248279 
L 363.1587 159.689068 
L 351.483554 159.689068 
z
" clip-path="url(#ped0f85e0f8)" style="fill: #e45756; stroke: #222222; stroke-width: 0.35; stroke-linejoin: miter"/>
   </g>
   <g id="patch_33">
    <path d="M 382.207623 177.248279 
L 393.882769 177.248279 
L 393.882769 164.213497 
L 382.207623 164.213497 
z
" clip-path="url(#ped0f85e0f8)" style="fill: #e45756; stroke: #222222; stroke-width: 0.35; stroke-linejoin: miter"/>
   </g>
   <g id="patch_34">
    <path d="M 412.931693 177.248279 
L 424.606839 177.248279 
L 424.606839 157.08106 
L 412.931693 157.08106 
z
" clip-path="url(#ped0f85e0f8)" style="fill: #e45756; stroke: #222222; stroke-width: 0.35; stroke-linejoin: miter"/>
   </g>
   <g id="patch_35">
    <path d="M 443.655762 177.248279 
L 455.330908 177.248279 
L 455.330908 151.759699 
L 443.655762 151.759699 
z
" clip-path="url(#ped0f85e0f8)" style="fill: #e45756; stroke: #222222; stroke-width: 0.35; stroke-linejoin: miter"/>
   </g>
   <g id="patch_36">
    <path d="M 474.379831 177.248279 
L 486.054978 177.248279 
L 486.054978 153.901953 
L 474.379831 153.901953 
z
" clip-path="url(#ped0f85e0f8)" style="fill: #e45756; stroke: #222222; stroke-width: 0.35; stroke-linejoin: miter"/>
   </g>
   <g id="patch_37">
    <path d="M 505.103901 177.248279 
L 516.779047 177.248279 
L 516.779047 164.251557 
L 505.103901 164.251557 
z
" clip-path="url(#ped0f85e0f8)" style="fill: #e45756; stroke: #222222; stroke-width: 0.35; stroke-linejoin: miter"/>
   </g>
   <g id="patch_38">
    <path d="M 535.82797 177.248279 
L 547.503117 177.248279 
L 547.503117 174.172836 
L 535.82797 174.172836 
z
" clip-path="url(#ped0f85e0f8)" style="fill: #e45756; stroke: #222222; stroke-width: 0.35; stroke-linejoin: miter"/>
   </g>
   <g id="patch_39">
    <path d="M 566.55204 177.248279 
L 578.227186 177.248279 
L 578.227186 177.248279 
L 566.55204 177.248279 
z
" clip-path="url(#ped0f85e0f8)" style="fill: #e45756; stroke: #222222; stroke-width: 0.35; stroke-linejoin: miter"/>
   </g>
   <g id="line2d_43">
    <path d="M 437.818189 177.248279 
L 437.818189 61.58 
" clip-path="url(#ped0f85e0f8)" style="fill: none; stroke-dasharray: 1.15,1.8975; stroke-dashoffset: 0; stroke: #1f4e79; stroke-opacity: 0.8; stroke-width: 1.15"/>
   </g>
   <g id="line2d_44">
    <path d="M 388.045196 177.248279 
L 388.045196 61.58 
" clip-path="url(#ped0f85e0f8)" style="fill: none; stroke-dasharray: 1.15,1.8975; stroke-dashoffset: 0; stroke: #b13a3a; stroke-opacity: 0.8; stroke-width: 1.15"/>
   </g>
   <g id="patch_40">
    <path d="M 327.887468 177.248279 
L 327.887468 61.58 
" style="fill: none; stroke: #000000; stroke-width: 0.8; stroke-linejoin: miter; stroke-linecap: square"/>
   </g>
   <g id="patch_41">
    <path d="M 590.148125 177.248279 
L 590.148125 61.58 
" style="fill: none; stroke: #000000; stroke-width: 0.8; stroke-linejoin: miter; stroke-linecap: square"/>
   </g>
   <g id="patch_42">
    <path d="M 327.887468 177.248279 
L 590.148125 177.248279 
" style="fill: none; stroke: #000000; stroke-width: 0.8; stroke-linejoin: miter; stroke-linecap: square"/>
   </g>
   <g id="patch_43">
    <path d="M 327.887468 61.58 
L 590.148125 61.58 
" style="fill: none; stroke: #000000; stroke-width: 0.8; stroke-linejoin: miter; stroke-linecap: square"/>
   </g>
   <g id="text_29">
    <!-- P80 &lt;=1024 -->
    <g style="fill: #1f4e79" transform="translate(441.818189 76.285481) scale(0.08 -0.08)">
     <use xlink:href="#DejaVuSans-50"/>
     <use xlink:href="#DejaVuSans-38" transform="translate(60.302734 0)"/>
     <use xlink:href="#DejaVuSans-30" transform="translate(123.925781 0)"/>
     <use xlink:href="#DejaVuSans-20" transform="translate(187.548828 0)"/>
     <use xlink:href="#DejaVuSans-3c" transform="translate(219.335938 0)"/>
     <use xlink:href="#DejaVuSans-3d" transform="translate(303.125 0)"/>
     <use xlink:href="#DejaVuSans-31" transform="translate(386.914062 0)"/>
     <use xlink:href="#DejaVuSans-30" transform="translate(450.537109 0)"/>
     <use xlink:href="#DejaVuSans-32" transform="translate(514.160156 0)"/>
     <use xlink:href="#DejaVuSans-34" transform="translate(577.783203 0)"/>
    </g>
   </g>
   <g id="text_30">
    <!-- P20 &lt;=256 -->
    <g style="fill: #b13a3a" transform="translate(392.045196 72.109809) scale(0.08 -0.08)">
     <use xlink:href="#DejaVuSans-50"/>
     <use xlink:href="#DejaVuSans-32" transform="translate(60.302734 0)"/>
     <use xlink:href="#DejaVuSans-30" transform="translate(123.925781 0)"/>
     <use xlink:href="#DejaVuSans-20" transform="translate(187.548828 0)"/>
     <use xlink:href="#DejaVuSans-3c" transform="translate(219.335938 0)"/>
     <use xlink:href="#DejaVuSans-3d" transform="translate(303.125 0)"/>
     <use xlink:href="#DejaVuSans-32" transform="translate(386.914062 0)"/>
     <use xlink:href="#DejaVuSans-35" transform="translate(450.537109 0)"/>
     <use xlink:href="#DejaVuSans-36" transform="translate(514.160156 0)"/>
    </g>
   </g>
   <g id="text_31">
    <!-- (b) BTree, window 130 (1318s) -->
    <g transform="translate(386.239633 43.942078) scale(0.095 -0.095)">
     <defs>
      <path id="DejaVuSans-54" d="M -19 4666 
L 3928 4666 
L 3928 4134 
L 2272 4134 
L 2272 0 
L 1638 0 
L 1638 4134 
L -19 4134 
L -19 4666 
z
" transform="scale(0.015625)"/>
      <path id="DejaVuSans-72" d="M 2631 2963 
Q 2534 3019 2420 3045 
Q 2306 3072 2169 3072 
Q 1681 3072 1420 2755 
Q 1159 2438 1159 1844 
L 1159 0 
L 581 0 
L 581 3500 
L 1159 3500 
L 1159 2956 
Q 1341 3275 1631 3429 
Q 1922 3584 2338 3584 
Q 2397 3584 2469 3576 
Q 2541 3569 2628 3553 
L 2631 2963 
z
" transform="scale(0.015625)"/>
     </defs>
     <use xlink:href="#DejaVuSans-28"/>
     <use xlink:href="#DejaVuSans-62" transform="translate(39.013672 0)"/>
     <use xlink:href="#DejaVuSans-29" transform="translate(102.490234 0)"/>
     <use xlink:href="#DejaVuSans-20" transform="translate(141.503906 0)"/>
     <use xlink:href="#DejaVuSans-42" transform="translate(173.291016 0)"/>
     <use xlink:href="#DejaVuSans-54" transform="translate(241.894531 0)"/>
     <use xlink:href="#DejaVuSans-72" transform="translate(288.228516 0)"/>
     <use xlink:href="#DejaVuSans-65" transform="translate(327.091797 0)"/>
     <use xlink:href="#DejaVuSans-65" transform="translate(388.615234 0)"/>
     <use xlink:href="#DejaVuSans-2c" transform="translate(450.138672 0)"/>
     <use xlink:href="#DejaVuSans-20" transform="translate(481.925781 0)"/>
     <use xlink:href="#DejaVuSans-77" transform="translate(513.712891 0)"/>
     <use xlink:href="#DejaVuSans-69" transform="translate(595.5 0)"/>
     <use xlink:href="#DejaVuSans-6e" transform="translate(623.283203 0)"/>
     <use xlink:href="#DejaVuSans-64" transform="translate(686.662109 0)"/>
     <use xlink:href="#DejaVuSans-6f" transform="translate(750.138672 0)"/>
     <use xlink:href="#DejaVuSans-77" transform="translate(811.320312 0)"/>
     <use xlink:href="#DejaVuSans-20" transform="translate(893.107422 0)"/>
     <use xlink:href="#DejaVuSans-31" transform="translate(924.894531 0)"/>
     <use xlink:href="#DejaVuSans-33" transform="translate(988.517578 0)"/>
     <use xlink:href="#DejaVuSans-30" transform="translate(1052.140625 0)"/>
     <use xlink:href="#DejaVuSans-20" transform="translate(1115.763672 0)"/>
     <use xlink:href="#DejaVuSans-28" transform="translate(1147.550781 0)"/>
     <use xlink:href="#DejaVuSans-31" transform="translate(1186.564453 0)"/>
     <use xlink:href="#DejaVuSans-33" transform="translate(1250.1875 0)"/>
     <use xlink:href="#DejaVuSans-31" transform="translate(1313.810547 0)"/>
     <use xlink:href="#DejaVuSans-38" transform="translate(1377.433594 0)"/>
     <use xlink:href="#DejaVuSans-73" transform="translate(1441.056641 0)"/>
     <use xlink:href="#DejaVuSans-29" transform="translate(1493.15625 0)"/>
    </g>
    <!-- Local n=169,459 / Remote n=550,088 -->
    <g transform="translate(367.472679 54.58) scale(0.095 -0.095)">
     <use xlink:href="#DejaVuSans-4c"/>
     <use xlink:href="#DejaVuSans-6f" transform="translate(53.962891 0)"/>
     <use xlink:href="#DejaVuSans-63" transform="translate(115.144531 0)"/>
     <use xlink:href="#DejaVuSans-61" transform="translate(170.125 0)"/>
     <use xlink:href="#DejaVuSans-6c" transform="translate(231.404297 0)"/>
     <use xlink:href="#DejaVuSans-20" transform="translate(259.1875 0)"/>
     <use xlink:href="#DejaVuSans-6e" transform="translate(290.974609 0)"/>
     <use xlink:href="#DejaVuSans-3d" transform="translate(354.353516 0)"/>
     <use xlink:href="#DejaVuSans-31" transform="translate(438.142578 0)"/>
     <use xlink:href="#DejaVuSans-36" transform="translate(501.765625 0)"/>
     <use xlink:href="#DejaVuSans-39" transform="translate(565.388672 0)"/>
     <use xlink:href="#DejaVuSans-2c" transform="translate(629.011719 0)"/>
     <use xlink:href="#DejaVuSans-34" transform="translate(660.798828 0)"/>
     <use xlink:href="#DejaVuSans-35" transform="translate(724.421875 0)"/>
     <use xlink:href="#DejaVuSans-39" transform="translate(788.044922 0)"/>
     <use xlink:href="#DejaVuSans-20" transform="translate(851.667969 0)"/>
     <use xlink:href="#DejaVuSans-2f" transform="translate(883.455078 0)"/>
     <use xlink:href="#DejaVuSans-20" transform="translate(917.146484 0)"/>
     <use xlink:href="#DejaVuSans-52" transform="translate(948.933594 0)"/>
     <use xlink:href="#DejaVuSans-65" transform="translate(1013.916016 0)"/>
     <use xlink:href="#DejaVuSans-6d" transform="translate(1075.439453 0)"/>
     <use xlink:href="#DejaVuSans-6f" transform="translate(1172.851562 0)"/>
     <use xlink:href="#DejaVuSans-74" transform="translate(1234.033203 0)"/>
     <use xlink:href="#DejaVuSans-65" transform="translate(1273.242188 0)"/>
     <use xlink:href="#DejaVuSans-20" transform="translate(1334.765625 0)"/>
     <use xlink:href="#DejaVuSans-6e" transform="translate(1366.552734 0)"/>
     <use xlink:href="#DejaVuSans-3d" transform="translate(1429.931641 0)"/>
     <use xlink:href="#DejaVuSans-35" transform="translate(1513.720703 0)"/>
     <use xlink:href="#DejaVuSans-35" transform="translate(1577.34375 0)"/>
     <use xlink:href="#DejaVuSans-30" transform="translate(1640.966797 0)"/>
     <use xlink:href="#DejaVuSans-2c" transform="translate(1704.589844 0)"/>
     <use xlink:href="#DejaVuSans-30" transform="translate(1736.376953 0)"/>
     <use xlink:href="#DejaVuSans-38" transform="translate(1800 0)"/>
     <use xlink:href="#DejaVuSans-38" transform="translate(1863.623047 0)"/>
    </g>
   </g>
   <g id="PathCollection_3">
    <g clip-path="url(#ped0f85e0f8)">
     <use xlink:href="#mc66aa3d88b" x="437.818189" y="66.206731" style="fill: #1f4e79; stroke: #ffffff; stroke-width: 0.45"/>
    </g>
   </g>
   <g id="PathCollection_4">
    <g clip-path="url(#ped0f85e0f8)">
     <use xlink:href="#m5e53989da2" x="388.045196" y="77.773559" style="fill: #b13a3a; stroke: #ffffff; stroke-width: 0.45"/>
    </g>
   </g>
  </g>
  <g id="legend_1">
   <g id="patch_44">
    <path d="M 90.229688 16.710719 
L 106.629688 16.710719 
L 106.629688 10.970719 
L 90.229688 10.970719 
z
" style="fill: #4c78a8; stroke: #222222; stroke-linejoin: miter"/>
   </g>
   <g id="text_32">
    <!-- Local samples -->
    <g transform="translate(113.189688 16.710719) scale(0.082 -0.082)">
     <use xlink:href="#DejaVuSans-4c"/>
     <use xlink:href="#DejaVuSans-6f" transform="translate(53.962891 0)"/>
     <use xlink:href="#DejaVuSans-63" transform="translate(115.144531 0)"/>
     <use xlink:href="#DejaVuSans-61" transform="translate(170.125 0)"/>
     <use xlink:href="#DejaVuSans-6c" transform="translate(231.404297 0)"/>
     <use xlink:href="#DejaVuSans-20" transform="translate(259.1875 0)"/>
     <use xlink:href="#DejaVuSans-73" transform="translate(290.974609 0)"/>
     <use xlink:href="#DejaVuSans-61" transform="translate(343.074219 0)"/>
     <use xlink:href="#DejaVuSans-6d" transform="translate(404.353516 0)"/>
     <use xlink:href="#DejaVuSans-70" transform="translate(501.765625 0)"/>
     <use xlink:href="#DejaVuSans-6c" transform="translate(565.242188 0)"/>
     <use xlink:href="#DejaVuSans-65" transform="translate(593.025391 0)"/>
     <use xlink:href="#DejaVuSans-73" transform="translate(654.548828 0)"/>
    </g>
   </g>
   <g id="patch_45">
    <path d="M 187.5355 16.710719 
L 203.9355 16.710719 
L 203.9355 10.970719 
L 187.5355 10.970719 
z
" style="fill: #e45756; stroke: #222222; stroke-linejoin: miter"/>
   </g>
   <g id="text_33">
    <!-- Remote samples -->
    <g transform="translate(210.4955 16.710719) scale(0.082 -0.082)">
     <use xlink:href="#DejaVuSans-52"/>
     <use xlink:href="#DejaVuSans-65" transform="translate(64.982422 0)"/>
     <use xlink:href="#DejaVuSans-6d" transform="translate(126.505859 0)"/>
     <use xlink:href="#DejaVuSans-6f" transform="translate(223.917969 0)"/>
     <use xlink:href="#DejaVuSans-74" transform="translate(285.099609 0)"/>
     <use xlink:href="#DejaVuSans-65" transform="translate(324.308594 0)"/>
     <use xlink:href="#DejaVuSans-20" transform="translate(385.832031 0)"/>
     <use xlink:href="#DejaVuSans-73" transform="translate(417.619141 0)"/>
     <use xlink:href="#DejaVuSans-61" transform="translate(469.71875 0)"/>
     <use xlink:href="#DejaVuSans-6d" transform="translate(530.998047 0)"/>
     <use xlink:href="#DejaVuSans-70" transform="translate(628.410156 0)"/>
     <use xlink:href="#DejaVuSans-6c" transform="translate(691.886719 0)"/>
     <use xlink:href="#DejaVuSans-65" transform="translate(719.669922 0)"/>
     <use xlink:href="#DejaVuSans-73" transform="translate(781.193359 0)"/>
    </g>
   </g>
   <g id="line2d_45">
    <path d="M 295.225844 13.840719 
L 303.425844 13.840719 
L 311.625844 13.840719 
" style="fill: none; stroke-dasharray: 1.5,2.475; stroke-dashoffset: 0; stroke: #1f4e79; stroke-width: 1.5"/>
    <defs>
     <path id="mf1e9a8a61d" d="M -0 3 
L 3 -3 
L -3 -3 
z
" style="stroke: #ffffff; stroke-linejoin: miter"/>
    </defs>
    <g>
     <use xlink:href="#mf1e9a8a61d" x="303.425844" y="13.840719" style="fill: #1f4e79; stroke: #ffffff; stroke-linejoin: miter"/>
    </g>
   </g>
   <g id="text_34">
    <!-- Local P80 bucket -->
    <g transform="translate(318.185844 16.710719) scale(0.082 -0.082)">
     <use xlink:href="#DejaVuSans-4c"/>
     <use xlink:href="#DejaVuSans-6f" transform="translate(53.962891 0)"/>
     <use xlink:href="#DejaVuSans-63" transform="translate(115.144531 0)"/>
     <use xlink:href="#DejaVuSans-61" transform="translate(170.125 0)"/>
     <use xlink:href="#DejaVuSans-6c" transform="translate(231.404297 0)"/>
     <use xlink:href="#DejaVuSans-20" transform="translate(259.1875 0)"/>
     <use xlink:href="#DejaVuSans-50" transform="translate(290.974609 0)"/>
     <use xlink:href="#DejaVuSans-38" transform="translate(351.277344 0)"/>
     <use xlink:href="#DejaVuSans-30" transform="translate(414.900391 0)"/>
     <use xlink:href="#DejaVuSans-20" transform="translate(478.523438 0)"/>
     <use xlink:href="#DejaVuSans-62" transform="translate(510.310547 0)"/>
     <use xlink:href="#DejaVuSans-75" transform="translate(573.787109 0)"/>
     <use xlink:href="#DejaVuSans-63" transform="translate(637.166016 0)"/>
     <use xlink:href="#DejaVuSans-6b" transform="translate(692.146484 0)"/>
     <use xlink:href="#DejaVuSans-65" transform="translate(746.431641 0)"/>
     <use xlink:href="#DejaVuSans-74" transform="translate(807.955078 0)"/>
    </g>
   </g>
   <g id="line2d_46">
    <path d="M 404.053938 13.840719 
L 412.253938 13.840719 
L 420.453938 13.840719 
" style="fill: none; stroke-dasharray: 1.5,2.475; stroke-dashoffset: 0; stroke: #b13a3a; stroke-width: 1.5"/>
    <defs>
     <path id="m76a4bcb746" d="M 0 -3 
L -3 3 
L 3 3 
z
" style="stroke: #ffffff; stroke-linejoin: miter"/>
    </defs>
    <g>
     <use xlink:href="#m76a4bcb746" x="412.253938" y="13.840719" style="fill: #b13a3a; stroke: #ffffff; stroke-linejoin: miter"/>
    </g>
   </g>
   <g id="text_35">
    <!-- Remote P20 bucket -->
    <g transform="translate(427.013938 16.710719) scale(0.082 -0.082)">
     <use xlink:href="#DejaVuSans-52"/>
     <use xlink:href="#DejaVuSans-65" transform="translate(64.982422 0)"/>
     <use xlink:href="#DejaVuSans-6d" transform="translate(126.505859 0)"/>
     <use xlink:href="#DejaVuSans-6f" transform="translate(223.917969 0)"/>
     <use xlink:href="#DejaVuSans-74" transform="translate(285.099609 0)"/>
     <use xlink:href="#DejaVuSans-65" transform="translate(324.308594 0)"/>
     <use xlink:href="#DejaVuSans-20" transform="translate(385.832031 0)"/>
     <use xlink:href="#DejaVuSans-50" transform="translate(417.619141 0)"/>
     <use xlink:href="#DejaVuSans-32" transform="translate(477.921875 0)"/>
     <use xlink:href="#DejaVuSans-30" transform="translate(541.544922 0)"/>
     <use xlink:href="#DejaVuSans-20" transform="translate(605.167969 0)"/>
     <use xlink:href="#DejaVuSans-62" transform="translate(636.955078 0)"/>
     <use xlink:href="#DejaVuSans-75" transform="translate(700.431641 0)"/>
     <use xlink:href="#DejaVuSans-63" transform="translate(763.810547 0)"/>
     <use xlink:href="#DejaVuSans-6b" transform="translate(818.791016 0)"/>
     <use xlink:href="#DejaVuSans-65" transform="translate(873.076172 0)"/>
     <use xlink:href="#DejaVuSans-74" transform="translate(934.599609 0)"/>
    </g>
   </g>
  </g>
 </g>
 <defs>
  <clipPath id="pa65a615cb1">
   <rect x="43.148125" y="61.58" width="262.260657" height="115.668279"/>
  </clipPath>
  <clipPath id="ped0f85e0f8">
   <rect x="327.887468" y="61.58" width="262.260657" height="115.668279"/>
  </clipPath>
 </defs>
</svg>
