<svg xmlns="http://www.w3.org/2000/svg" width="1120" height="620" viewBox="0 0 1120 620">
<rect width="100%" height="100%" fill="#ffffff"/>
<text x="560.0" y="30" text-anchor="middle" font-family="sans-serif" font-size="20" font-weight="700">friendly vs move16g3s: sampled refault latency by phase</text>
<line x1="92" y1="58" x2="92" y2="528" stroke="#333"/>
<line x1="92" y1="528" x2="1092" y2="528" stroke="#333"/>
<line x1="92" y1="528.0" x2="1092" y2="528.0" stroke="#e5e5e5"/>
<text x="84" y="532.0" text-anchor="end" font-family="sans-serif" font-size="12">0.0</text>
<line x1="92" y1="434.0" x2="1092" y2="434.0" stroke="#e5e5e5"/>
<text x="84" y="438.0" text-anchor="end" font-family="sans-serif" font-size="12">2.4</text>
<line x1="92" y1="340.0" x2="1092" y2="340.0" stroke="#e5e5e5"/>
<text x="84" y="344.0" text-anchor="end" font-family="sans-serif" font-size="12">4.7</text>
<line x1="92" y1="246.0" x2="1092" y2="246.0" stroke="#e5e5e5"/>
<text x="84" y="250.0" text-anchor="end" font-family="sans-serif" font-size="12">7.1</text>
<line x1="92" y1="152.0" x2="1092" y2="152.0" stroke="#e5e5e5"/>
<text x="84" y="156.0" text-anchor="end" font-family="sans-serif" font-size="12">9.5</text>
<line x1="92" y1="58.0" x2="1092" y2="58.0" stroke="#e5e5e5"/>
<text x="84" y="62.0" text-anchor="end" font-family="sans-serif" font-size="12">11.9</text>
<line x1="92.0" y1="528" x2="92.0" y2="533" stroke="#333"/>
<text x="92.0" y="552" text-anchor="middle" font-family="sans-serif" font-size="12">P1</text>
<line x1="292.0" y1="528" x2="292.0" y2="533" stroke="#333"/>
<text x="292.0" y="552" text-anchor="middle" font-family="sans-serif" font-size="12">P2</text>
<line x1="492.0" y1="528" x2="492.0" y2="533" stroke="#333"/>
<text x="492.0" y="552" text-anchor="middle" font-family="sans-serif" font-size="12">P3</text>
<line x1="692.0" y1="528" x2="692.0" y2="533" stroke="#333"/>
<text x="692.0" y="552" text-anchor="middle" font-family="sans-serif" font-size="12">P4</text>
<line x1="892.0" y1="528" x2="892.0" y2="533" stroke="#333"/>
<text x="892.0" y="552" text-anchor="middle" font-family="sans-serif" font-size="12">P5</text>
<line x1="1092.0" y1="528" x2="1092.0" y2="533" stroke="#333"/>
<text x="1092.0" y="552" text-anchor="middle" font-family="sans-serif" font-size="12">P6</text>
<text x="560.0" y="596" text-anchor="middle" font-family="sans-serif" font-size="13">phase</text>
<text transform="translate(22 310.0) rotate(-90)" text-anchor="middle" font-family="sans-serif" font-size="13">us</text>
<polyline points="92.0,528.0 292.0,528.0 492.0,528.0 692.0,528.0 892.0,528.0 1092.0,528.0" fill="none" stroke="#555555" stroke-width="2.4" />
<circle cx="92.0" cy="528.0" r="3.5" fill="#555555"/>
<circle cx="292.0" cy="528.0" r="3.5" fill="#555555"/>
<circle cx="492.0" cy="528.0" r="3.5" fill="#555555"/>
<circle cx="692.0" cy="528.0" r="3.5" fill="#555555"/>
<circle cx="892.0" cy="528.0" r="3.5" fill="#555555"/>
<circle cx="1092.0" cy="528.0" r="3.5" fill="#555555"/>
<polyline points="92.0,377.3 292.0,385.2 492.0,376.8 692.0,92.8 892.0,460.4 1092.0,401.0" fill="none" stroke="#1f77b4" stroke-width="2.4" />
<circle cx="92.0" cy="377.3" r="3.5" fill="#1f77b4"/>
<circle cx="292.0" cy="385.2" r="3.5" fill="#1f77b4"/>
<circle cx="492.0" cy="376.8" r="3.5" fill="#1f77b4"/>
<circle cx="692.0" cy="92.8" r="3.5" fill="#1f77b4"/>
<circle cx="892.0" cy="460.4" r="3.5" fill="#1f77b4"/>
<circle cx="1092.0" cy="401.0" r="3.5" fill="#1f77b4"/>
<polyline points="92.0,425.4 292.0,528.0 492.0,437.3 692.0,528.0 892.0,112.2 1092.0,528.0" fill="none" stroke="#d62728" stroke-width="2.4" />
<circle cx="92.0" cy="425.4" r="3.5" fill="#d62728"/>
<circle cx="292.0" cy="528.0" r="3.5" fill="#d62728"/>
<circle cx="492.0" cy="437.3" r="3.5" fill="#d62728"/>
<circle cx="692.0" cy="528.0" r="3.5" fill="#d62728"/>
<circle cx="892.0" cy="112.2" r="3.5" fill="#d62728"/>
<circle cx="1092.0" cy="528.0" r="3.5" fill="#d62728"/>
<line x1="92" y1="562" x2="120" y2="562" stroke="#555555" stroke-width="3"/>
<text x="128" y="566" font-family="sans-serif" font-size="13">off+demotion</text>
<line x1="277" y1="562" x2="305" y2="562" stroke="#1f77b4" stroke-width="3"/>
<text x="313" y="566" font-family="sans-serif" font-size="13">migration-on</text>
<line x1="462" y1="562" x2="490" y2="562" stroke="#d62728" stroke-width="3"/>
<text x="498" y="566" font-family="sans-serif" font-size="13">adaptive</text>
</svg>